<?xml version="1.0" standalone="no"?><svg xmlns="http://www.w3.org/2000/svg" viewBox="0 0 1440 320"><path fill="#F9BAD1" fill-opacity="1" d="M0,320L15,277.3C30,235,60,149,90,144C120,139,150,213,180,218.7C210,224,240,160,270,122.7C300,85,330,75,360,64C390,53,420,43,450,37.3C480,32,510,32,540,74.7C570,117,600,203,630,202.7C660,203,690,117,720,122.7C750,128,780,224,810,250.7C840,277,870,235,900,218.7C930,203,960,213,990,197.3C1020,181,1050,139,1080,112C1110,85,1140,75,1170,112C1200,149,1230,235,1260,240C1290,245,1320,171,1350,128C1380,85,1410,75,1425,69.3L1440,64L1440,0L1425,0C1410,0,1380,0,1350,0C1320,0,1290,0,1260,0C1230,0,1200,0,1170,0C1140,0,1110,0,1080,0C1050,0,1020,0,990,0C960,0,930,0,900,0C870,0,840,0,810,0C780,0,750,0,720,0C690,0,660,0,630,0C600,0,570,0,540,0C510,0,480,0,450,0C420,0,390,0,360,0C330,0,300,0,270,0C240,0,210,0,180,0C150,0,120,0,90,0C60,0,30,0,15,0L0,0Z"></path></svg>