<svg width="291" height="132" viewBox="0 0 291 132" fill="none" xmlns="http://www.w3.org/2000/svg">
<g filter="url(#filter0_d_2_37)">
<path d="M236.152 0H10L69.5697 56.3873L10 102H236.152L281 56.3873L236.152 0Z" fill="#DD497F"/>
<path d="M105.568 60L101.188 52.05H99.9584V60H94.8284V38.94H103.438C105.098 38.94 106.508 39.23 107.668 39.81C108.848 40.39 109.728 41.19 110.308 42.21C110.888 43.21 111.178 44.33 111.178 45.57C111.178 46.97 110.778 48.22 109.978 49.32C109.198 50.42 108.038 51.2 106.498 51.66L111.358 60H105.568ZM99.9584 48.42H103.138C104.078 48.42 104.778 48.19 105.238 47.73C105.718 47.27 105.958 46.62 105.958 45.78C105.958 44.98 105.718 44.35 105.238 43.89C104.778 43.43 104.078 43.2 103.138 43.2H99.9584V48.42ZM130.179 51.36C130.179 51.84 130.149 52.34 130.089 52.86H118.479C118.559 53.9 118.889 54.7 119.469 55.26C120.069 55.8 120.799 56.07 121.659 56.07C122.939 56.07 123.829 55.53 124.329 54.45H129.789C129.509 55.55 128.999 56.54 128.259 57.42C127.539 58.3 126.629 58.99 125.529 59.49C124.429 59.99 123.199 60.24 121.839 60.24C120.199 60.24 118.739 59.89 117.459 59.19C116.179 58.49 115.179 57.49 114.459 56.19C113.739 54.89 113.379 53.37 113.379 51.63C113.379 49.89 113.729 48.37 114.429 47.07C115.149 45.77 116.149 44.77 117.429 44.07C118.709 43.37 120.179 43.02 121.839 43.02C123.459 43.02 124.899 43.36 126.159 44.04C127.419 44.72 128.399 45.69 129.099 46.95C129.819 48.21 130.179 49.68 130.179 51.36ZM124.929 50.01C124.929 49.13 124.629 48.43 124.029 47.91C123.429 47.39 122.679 47.13 121.779 47.13C120.919 47.13 120.189 47.38 119.589 47.88C119.009 48.38 118.649 49.09 118.509 50.01H124.929ZM139.695 60.24C138.235 60.24 136.935 59.99 135.795 59.49C134.655 58.99 133.755 58.31 133.095 57.45C132.435 56.57 132.065 55.59 131.985 54.51H137.055C137.115 55.09 137.385 55.56 137.865 55.92C138.345 56.28 138.935 56.46 139.635 56.46C140.275 56.46 140.765 56.34 141.105 56.1C141.465 55.84 141.645 55.51 141.645 55.11C141.645 54.63 141.395 54.28 140.895 54.06C140.395 53.82 139.585 53.56 138.465 53.28C137.265 53 136.265 52.71 135.465 52.41C134.665 52.09 133.975 51.6 133.395 50.94C132.815 50.26 132.525 49.35 132.525 48.21C132.525 47.25 132.785 46.38 133.305 45.6C133.845 44.8 134.625 44.17 135.645 43.71C136.685 43.25 137.915 43.02 139.335 43.02C141.435 43.02 143.085 43.54 144.285 44.58C145.505 45.62 146.205 47 146.385 48.72H141.645C141.565 48.14 141.305 47.68 140.865 47.34C140.445 47 139.885 46.83 139.185 46.83C138.585 46.83 138.125 46.95 137.805 47.19C137.485 47.41 137.325 47.72 137.325 48.12C137.325 48.6 137.575 48.96 138.075 49.2C138.595 49.44 139.395 49.68 140.475 49.92C141.715 50.24 142.725 50.56 143.505 50.88C144.285 51.18 144.965 51.68 145.545 52.38C146.145 53.06 146.455 53.98 146.475 55.14C146.475 56.12 146.195 57 145.635 57.78C145.095 58.54 144.305 59.14 143.265 59.58C142.245 60.02 141.055 60.24 139.695 60.24ZM166.144 43.26V60H161.014V57.72C160.494 58.46 159.784 59.06 158.884 59.52C158.004 59.96 157.024 60.18 155.944 60.18C154.664 60.18 153.534 59.9 152.554 59.34C151.574 58.76 150.814 57.93 150.274 56.85C149.734 55.77 149.464 54.5 149.464 53.04V43.26H154.564V52.35C154.564 53.47 154.854 54.34 155.434 54.96C156.014 55.58 156.794 55.89 157.774 55.89C158.774 55.89 159.564 55.58 160.144 54.96C160.724 54.34 161.014 53.47 161.014 52.35V43.26H166.144ZM191.188 43.08C193.268 43.08 194.918 43.71 196.138 44.97C197.378 46.23 197.998 47.98 197.998 50.22V60H192.898V50.91C192.898 49.83 192.608 49 192.028 48.42C191.468 47.82 190.688 47.52 189.688 47.52C188.688 47.52 187.898 47.82 187.318 48.42C186.758 49 186.478 49.83 186.478 50.91V60H181.378V50.91C181.378 49.83 181.088 49 180.508 48.42C179.948 47.82 179.168 47.52 178.168 47.52C177.168 47.52 176.378 47.82 175.798 48.42C175.238 49 174.958 49.83 174.958 50.91V60H169.828V43.26H174.958V45.36C175.478 44.66 176.158 44.11 176.998 43.71C177.838 43.29 178.788 43.08 179.848 43.08C181.108 43.08 182.228 43.35 183.208 43.89C184.208 44.43 184.988 45.2 185.548 46.2C186.128 45.28 186.918 44.53 187.918 43.95C188.918 43.37 190.008 43.08 191.188 43.08ZM217.366 51.36C217.366 51.84 217.336 52.34 217.276 52.86H205.666C205.746 53.9 206.076 54.7 206.656 55.26C207.256 55.8 207.986 56.07 208.846 56.07C210.126 56.07 211.016 55.53 211.516 54.45H216.976C216.696 55.55 216.186 56.54 215.446 57.42C214.726 58.3 213.816 58.99 212.716 59.49C211.616 59.99 210.386 60.24 209.026 60.24C207.386 60.24 205.926 59.89 204.646 59.19C203.366 58.49 202.366 57.49 201.646 56.19C200.926 54.89 200.566 53.37 200.566 51.63C200.566 49.89 200.916 48.37 201.616 47.07C202.336 45.77 203.336 44.77 204.616 44.07C205.896 43.37 207.366 43.02 209.026 43.02C210.646 43.02 212.086 43.36 213.346 44.04C214.606 44.72 215.586 45.69 216.286 46.95C217.006 48.21 217.366 49.68 217.366 51.36ZM212.116 50.01C212.116 49.13 211.816 48.43 211.216 47.91C210.616 47.39 209.866 47.13 208.966 47.13C208.106 47.13 207.376 47.38 206.776 47.88C206.196 48.38 205.836 49.09 205.696 50.01H212.116Z" fill="#F9BAD1"/>
</g>
<defs>
<filter id="filter0_d_2_37" x="0" y="0" width="291" height="132" filterUnits="userSpaceOnUse" color-interpolation-filters="sRGB">
<feFlood flood-opacity="0" result="BackgroundImageFix"/>
<feColorMatrix in="SourceAlpha" type="matrix" values="0 0 0 0 0 0 0 0 0 0 0 0 0 0 0 0 0 0 127 0" result="hardAlpha"/>
<feOffset dy="20"/>
<feGaussianBlur stdDeviation="5"/>
<feComposite in2="hardAlpha" operator="out"/>
<feColorMatrix type="matrix" values="0 0 0 0 0.545833 0 0 0 0 0 0 0 0 0 0.200139 0 0 0 0.25 0"/>
<feBlend mode="normal" in2="BackgroundImageFix" result="effect1_dropShadow_2_37"/>
<feBlend mode="normal" in="SourceGraphic" in2="effect1_dropShadow_2_37" result="shape"/>
</filter>
</defs>
</svg>
