<svg width="1789" height="1037" viewBox="0 0 1789 1037" fill="none" xmlns="http://www.w3.org/2000/svg">
<path d="M1527.46 239.42L1528.96 242.12L1525.06 243.53L1528.96 244.94L1527.4 247.73L1524.16 245.06L1524.85 249.2H1521.73L1522.39 245.06L1519.18 247.79L1517.53 244.91L1521.43 243.5L1517.56 242.15L1519.09 239.39L1522.42 242.03L1521.73 237.86H1524.88L1524.16 242.03L1527.46 239.42ZM1532.01 251.69C1532.01 249.97 1532.36 248.47 1533.06 247.19C1533.76 245.89 1534.73 244.89 1535.97 244.19C1537.21 243.47 1538.63 243.11 1540.23 243.11C1542.29 243.11 1543.99 243.63 1545.33 244.67C1546.69 245.69 1547.6 247.13 1548.06 248.99H1543.53C1543.29 248.27 1542.88 247.71 1542.3 247.31C1541.74 246.89 1541.04 246.68 1540.2 246.68C1539 246.68 1538.05 247.12 1537.35 248C1536.65 248.86 1536.3 250.09 1536.3 251.69C1536.3 253.27 1536.65 254.5 1537.35 255.38C1538.05 256.24 1539 256.67 1540.2 256.67C1541.9 256.67 1543.01 255.91 1543.53 254.39H1548.06C1547.6 256.19 1546.69 257.62 1545.33 258.68C1543.97 259.74 1542.27 260.27 1540.23 260.27C1538.63 260.27 1537.21 259.92 1535.97 259.22C1534.73 258.5 1533.76 257.5 1533.06 256.22C1532.36 254.92 1532.01 253.41 1532.01 251.69ZM1555.34 237.8V260H1551.14V237.8H1555.34ZM1561.62 241.4C1560.88 241.4 1560.26 241.17 1559.76 240.71C1559.28 240.23 1559.04 239.64 1559.04 238.94C1559.04 238.24 1559.28 237.66 1559.76 237.2C1560.26 236.72 1560.88 236.48 1561.62 236.48C1562.36 236.48 1562.97 236.72 1563.45 237.2C1563.95 237.66 1564.2 238.24 1564.2 238.94C1564.2 239.64 1563.95 240.23 1563.45 240.71C1562.97 241.17 1562.36 241.4 1561.62 241.4ZM1563.69 243.38V260H1559.49V243.38H1563.69ZM1566.75 251.69C1566.75 249.97 1567.1 248.47 1567.8 247.19C1568.5 245.89 1569.47 244.89 1570.71 244.19C1571.95 243.47 1573.37 243.11 1574.97 243.11C1577.03 243.11 1578.73 243.63 1580.07 244.67C1581.43 245.69 1582.34 247.13 1582.8 248.99H1578.27C1578.03 248.27 1577.62 247.71 1577.04 247.31C1576.48 246.89 1575.78 246.68 1574.94 246.68C1573.74 246.68 1572.79 247.12 1572.09 248C1571.39 248.86 1571.04 250.09 1571.04 251.69C1571.04 253.27 1571.39 254.5 1572.09 255.38C1572.79 256.24 1573.74 256.67 1574.94 256.67C1576.64 256.67 1577.75 255.91 1578.27 254.39H1582.8C1582.34 256.19 1581.43 257.62 1580.07 258.68C1578.71 259.74 1577.01 260.27 1574.97 260.27C1573.37 260.27 1571.95 259.92 1570.71 259.22C1569.47 258.5 1568.5 257.5 1567.8 256.22C1567.1 254.92 1566.75 253.41 1566.75 251.69ZM1595.72 260L1590.08 252.92V260H1585.88V237.8H1590.08V250.43L1595.66 243.38H1601.12L1593.8 251.72L1601.18 260H1595.72ZM1617.93 260.27C1616.33 260.27 1614.89 259.92 1613.61 259.22C1612.33 258.5 1611.32 257.49 1610.58 256.19C1609.86 254.89 1609.5 253.39 1609.5 251.69C1609.5 249.99 1609.87 248.49 1610.61 247.19C1611.37 245.89 1612.4 244.89 1613.7 244.19C1615 243.47 1616.45 243.11 1618.05 243.11C1619.65 243.11 1621.1 243.47 1622.4 244.19C1623.7 244.89 1624.72 245.89 1625.46 247.19C1626.22 248.49 1626.6 249.99 1626.6 251.69C1626.6 253.39 1626.21 254.89 1625.43 256.19C1624.67 257.49 1623.63 258.5 1622.31 259.22C1621.01 259.92 1619.55 260.27 1617.93 260.27ZM1617.93 256.61C1618.69 256.61 1619.4 256.43 1620.06 256.07C1620.74 255.69 1621.28 255.13 1621.68 254.39C1622.08 253.65 1622.28 252.75 1622.28 251.69C1622.28 250.11 1621.86 248.9 1621.02 248.06C1620.2 247.2 1619.19 246.77 1617.99 246.77C1616.79 246.77 1615.78 247.2 1614.96 248.06C1614.16 248.9 1613.76 250.11 1613.76 251.69C1613.76 253.27 1614.15 254.49 1614.93 255.35C1615.73 256.19 1616.73 256.61 1617.93 256.61ZM1638.89 243.14C1640.87 243.14 1642.47 243.77 1643.69 245.03C1644.91 246.27 1645.52 248.01 1645.52 250.25V260H1641.32V250.82C1641.32 249.5 1640.99 248.49 1640.33 247.79C1639.67 247.07 1638.77 246.71 1637.63 246.71C1636.47 246.71 1635.55 247.07 1634.87 247.79C1634.21 248.49 1633.88 249.5 1633.88 250.82V260H1629.68V243.38H1633.88V245.45C1634.44 244.73 1635.15 244.17 1636.01 243.77C1636.89 243.35 1637.85 243.14 1638.89 243.14ZM1661.55 246.83V254.87C1661.55 255.43 1661.68 255.84 1661.94 256.1C1662.22 256.34 1662.68 256.46 1663.32 256.46H1665.27V260H1662.63C1659.09 260 1657.32 258.28 1657.32 254.84V246.83H1655.34V243.38H1657.32V239.27H1661.55V243.38H1665.27V246.83H1661.55ZM1677.65 243.14C1678.91 243.14 1680.03 243.42 1681.01 243.98C1681.99 244.52 1682.75 245.33 1683.29 246.41C1683.85 247.47 1684.13 248.75 1684.13 250.25V260H1679.93V250.82C1679.93 249.5 1679.6 248.49 1678.94 247.79C1678.28 247.07 1677.38 246.71 1676.24 246.71C1675.08 246.71 1674.16 247.07 1673.48 247.79C1672.82 248.49 1672.49 249.5 1672.49 250.82V260H1668.29V237.8H1672.49V245.45C1673.03 244.73 1673.75 244.17 1674.65 243.77C1675.55 243.35 1676.55 243.14 1677.65 243.14ZM1703.58 251.33C1703.58 251.93 1703.54 252.47 1703.46 252.95H1691.31C1691.41 254.15 1691.83 255.09 1692.57 255.77C1693.31 256.45 1694.22 256.79 1695.3 256.79C1696.86 256.79 1697.97 256.12 1698.63 254.78H1703.16C1702.68 256.38 1701.76 257.7 1700.4 258.74C1699.04 259.76 1697.37 260.27 1695.39 260.27C1693.79 260.27 1692.35 259.92 1691.07 259.22C1689.81 258.5 1688.82 257.49 1688.1 256.19C1687.4 254.89 1687.05 253.39 1687.05 251.69C1687.05 249.97 1687.4 248.46 1688.1 247.16C1688.8 245.86 1689.78 244.86 1691.04 244.16C1692.3 243.46 1693.75 243.11 1695.39 243.11C1696.97 243.11 1698.38 243.45 1699.62 244.13C1700.88 244.81 1701.85 245.78 1702.53 247.04C1703.23 248.28 1703.58 249.71 1703.58 251.33ZM1699.23 250.13C1699.21 249.05 1698.82 248.19 1698.06 247.55C1697.3 246.89 1696.37 246.56 1695.27 246.56C1694.23 246.56 1693.35 246.88 1692.63 247.52C1691.93 248.14 1691.5 249.01 1691.34 250.13H1699.23ZM1720.15 260.27C1718.79 260.27 1717.57 260.03 1716.49 259.55C1715.41 259.05 1714.55 258.38 1713.91 257.54C1713.29 256.7 1712.95 255.77 1712.89 254.75H1717.12C1717.2 255.39 1717.51 255.92 1718.05 256.34C1718.61 256.76 1719.3 256.97 1720.12 256.97C1720.92 256.97 1721.54 256.81 1721.98 256.49C1722.44 256.17 1722.67 255.76 1722.67 255.26C1722.67 254.72 1722.39 254.32 1721.83 254.06C1721.29 253.78 1720.42 253.48 1719.22 253.16C1717.98 252.86 1716.96 252.55 1716.16 252.23C1715.38 251.91 1714.7 251.42 1714.12 250.76C1713.56 250.1 1713.28 249.21 1713.28 248.09C1713.28 247.17 1713.54 246.33 1714.06 245.57C1714.6 244.81 1715.36 244.21 1716.34 243.77C1717.34 243.33 1718.51 243.11 1719.85 243.11C1721.83 243.11 1723.41 243.61 1724.59 244.61C1725.77 245.59 1726.42 246.92 1726.54 248.6H1722.52C1722.46 247.94 1722.18 247.42 1721.68 247.04C1721.2 246.64 1720.55 246.44 1719.73 246.44C1718.97 246.44 1718.38 246.58 1717.96 246.86C1717.56 247.14 1717.36 247.53 1717.36 248.03C1717.36 248.59 1717.64 249.02 1718.2 249.32C1718.76 249.6 1719.63 249.89 1720.81 250.19C1722.01 250.49 1723 250.8 1723.78 251.12C1724.56 251.44 1725.23 251.94 1725.79 252.62C1726.37 253.28 1726.67 254.16 1726.69 255.26C1726.69 256.22 1726.42 257.08 1725.88 257.84C1725.36 258.6 1724.6 259.2 1723.6 259.64C1722.62 260.06 1721.47 260.27 1720.15 260.27ZM1735.03 246.83V254.87C1735.03 255.43 1735.16 255.84 1735.42 256.1C1735.7 256.34 1736.16 256.46 1736.8 256.46H1738.75V260H1736.11C1732.57 260 1730.8 258.28 1730.8 254.84V246.83H1728.82V243.38H1730.8V239.27H1735.03V243.38H1738.75V246.83H1735.03ZM1740.69 251.63C1740.69 249.95 1741.02 248.46 1741.68 247.16C1742.36 245.86 1743.27 244.86 1744.41 244.16C1745.57 243.46 1746.86 243.11 1748.28 243.11C1749.52 243.11 1750.6 243.36 1751.52 243.86C1752.46 244.36 1753.21 244.99 1753.77 245.75V243.38H1758V260H1753.77V257.57C1753.23 258.35 1752.48 259 1751.52 259.52C1750.58 260.02 1749.49 260.27 1748.25 260.27C1746.85 260.27 1745.57 259.91 1744.41 259.19C1743.27 258.47 1742.36 257.46 1741.68 256.16C1741.02 254.84 1740.69 253.33 1740.69 251.63ZM1753.77 251.69C1753.77 250.67 1753.57 249.8 1753.17 249.08C1752.77 248.34 1752.23 247.78 1751.55 247.4C1750.87 247 1750.14 246.8 1749.36 246.8C1748.58 246.8 1747.86 246.99 1747.2 247.37C1746.54 247.75 1746 248.31 1745.58 249.05C1745.18 249.77 1744.98 250.63 1744.98 251.63C1744.98 252.63 1745.18 253.51 1745.58 254.27C1746 255.01 1746.54 255.58 1747.2 255.98C1747.88 256.38 1748.6 256.58 1749.36 256.58C1750.14 256.58 1750.87 256.39 1751.55 256.01C1752.23 255.61 1752.77 255.05 1753.17 254.33C1753.57 253.59 1753.77 252.71 1753.77 251.69ZM1766.3 245.96C1766.84 245.08 1767.54 244.39 1768.4 243.89C1769.28 243.39 1770.28 243.14 1771.4 243.14V247.55H1770.29C1768.97 247.55 1767.97 247.86 1767.29 248.48C1766.63 249.1 1766.3 250.18 1766.3 251.72V260H1762.1V243.38H1766.3V245.96ZM1780.59 260.27C1779.23 260.27 1778.01 260.03 1776.93 259.55C1775.85 259.05 1774.99 258.38 1774.35 257.54C1773.73 256.7 1773.39 255.77 1773.33 254.75H1777.56C1777.64 255.39 1777.95 255.92 1778.49 256.34C1779.05 256.76 1779.74 256.97 1780.56 256.97C1781.36 256.97 1781.98 256.81 1782.42 256.49C1782.88 256.17 1783.11 255.76 1783.11 255.26C1783.11 254.72 1782.83 254.32 1782.27 254.06C1781.73 253.78 1780.86 253.48 1779.66 253.16C1778.42 252.86 1777.4 252.55 1776.6 252.23C1775.82 251.91 1775.14 251.42 1774.56 250.76C1774 250.1 1773.72 249.21 1773.72 248.09C1773.72 247.17 1773.98 246.33 1774.5 245.57C1775.04 244.81 1775.8 244.21 1776.78 243.77C1777.78 243.33 1778.95 243.11 1780.29 243.11C1782.27 243.11 1783.85 243.61 1785.03 244.61C1786.21 245.59 1786.86 246.92 1786.98 248.6H1782.96C1782.9 247.94 1782.62 247.42 1782.12 247.04C1781.64 246.64 1780.99 246.44 1780.17 246.44C1779.41 246.44 1778.82 246.58 1778.4 246.86C1778 247.14 1777.8 247.53 1777.8 248.03C1777.8 248.59 1778.08 249.02 1778.64 249.32C1779.2 249.6 1780.07 249.89 1781.25 250.19C1782.45 250.49 1783.44 250.8 1784.22 251.12C1785 251.44 1785.67 251.94 1786.23 252.62C1786.81 253.28 1787.11 254.16 1787.13 255.26C1787.13 256.22 1786.86 257.08 1786.32 257.84C1785.8 258.6 1785.04 259.2 1784.04 259.64C1783.06 260.06 1781.91 260.27 1780.59 260.27Z" fill="#F9BAD1"/>
<path d="M1240.46 786.42L1241.96 789.12L1238.06 790.53L1241.96 791.94L1240.4 794.73L1237.16 792.06L1237.85 796.2H1234.73L1235.39 792.06L1232.18 794.79L1230.53 791.91L1234.43 790.5L1230.56 789.15L1232.09 786.39L1235.42 789.03L1234.73 784.86H1237.88L1237.16 789.03L1240.46 786.42ZM1245.01 798.69C1245.01 796.97 1245.36 795.47 1246.06 794.19C1246.76 792.89 1247.73 791.89 1248.97 791.19C1250.21 790.47 1251.63 790.11 1253.23 790.11C1255.29 790.11 1256.99 790.63 1258.33 791.67C1259.69 792.69 1260.6 794.13 1261.06 795.99H1256.53C1256.29 795.27 1255.88 794.71 1255.3 794.31C1254.74 793.89 1254.04 793.68 1253.2 793.68C1252 793.68 1251.05 794.12 1250.35 795C1249.65 795.86 1249.3 797.09 1249.3 798.69C1249.3 800.27 1249.65 801.5 1250.35 802.38C1251.05 803.24 1252 803.67 1253.2 803.67C1254.9 803.67 1256.01 802.91 1256.53 801.39H1261.06C1260.6 803.19 1259.69 804.62 1258.33 805.68C1256.97 806.74 1255.27 807.27 1253.23 807.27C1251.63 807.27 1250.21 806.92 1248.97 806.22C1247.73 805.5 1246.76 804.5 1246.06 803.22C1245.36 801.92 1245.01 800.41 1245.01 798.69ZM1268.34 784.8V807H1264.14V784.8H1268.34ZM1274.62 788.4C1273.88 788.4 1273.26 788.17 1272.76 787.71C1272.28 787.23 1272.04 786.64 1272.04 785.94C1272.04 785.24 1272.28 784.66 1272.76 784.2C1273.26 783.72 1273.88 783.48 1274.62 783.48C1275.36 783.48 1275.97 783.72 1276.45 784.2C1276.95 784.66 1277.2 785.24 1277.2 785.94C1277.2 786.64 1276.95 787.23 1276.45 787.71C1275.97 788.17 1275.36 788.4 1274.62 788.4ZM1276.69 790.38V807H1272.49V790.38H1276.69ZM1279.75 798.69C1279.75 796.97 1280.1 795.47 1280.8 794.19C1281.5 792.89 1282.47 791.89 1283.71 791.19C1284.95 790.47 1286.37 790.11 1287.97 790.11C1290.03 790.11 1291.73 790.63 1293.07 791.67C1294.43 792.69 1295.34 794.13 1295.8 795.99H1291.27C1291.03 795.27 1290.62 794.71 1290.04 794.31C1289.48 793.89 1288.78 793.68 1287.94 793.68C1286.74 793.68 1285.79 794.12 1285.09 795C1284.39 795.86 1284.04 797.09 1284.04 798.69C1284.04 800.27 1284.39 801.5 1285.09 802.38C1285.79 803.24 1286.74 803.67 1287.94 803.67C1289.64 803.67 1290.75 802.91 1291.27 801.39H1295.8C1295.34 803.19 1294.43 804.62 1293.07 805.68C1291.71 806.74 1290.01 807.27 1287.97 807.27C1286.37 807.27 1284.95 806.92 1283.71 806.22C1282.47 805.5 1281.5 804.5 1280.8 803.22C1280.1 801.92 1279.75 800.41 1279.75 798.69ZM1308.72 807L1303.08 799.92V807H1298.88V784.8H1303.08V797.43L1308.66 790.38H1314.12L1306.8 798.72L1314.18 807H1308.72ZM1330.93 807.27C1329.33 807.27 1327.89 806.92 1326.61 806.22C1325.33 805.5 1324.32 804.49 1323.58 803.19C1322.86 801.89 1322.5 800.39 1322.5 798.69C1322.5 796.99 1322.87 795.49 1323.61 794.19C1324.37 792.89 1325.4 791.89 1326.7 791.19C1328 790.47 1329.45 790.11 1331.05 790.11C1332.65 790.11 1334.1 790.47 1335.4 791.19C1336.7 791.89 1337.72 792.89 1338.46 794.19C1339.22 795.49 1339.6 796.99 1339.6 798.69C1339.6 800.39 1339.21 801.89 1338.43 803.19C1337.67 804.49 1336.63 805.5 1335.31 806.22C1334.01 806.92 1332.55 807.27 1330.93 807.27ZM1330.93 803.61C1331.69 803.61 1332.4 803.43 1333.06 803.07C1333.74 802.69 1334.28 802.13 1334.68 801.39C1335.08 800.65 1335.28 799.75 1335.28 798.69C1335.28 797.11 1334.86 795.9 1334.02 795.06C1333.2 794.2 1332.19 793.77 1330.99 793.77C1329.79 793.77 1328.78 794.2 1327.96 795.06C1327.16 795.9 1326.76 797.11 1326.76 798.69C1326.76 800.27 1327.15 801.49 1327.93 802.35C1328.73 803.19 1329.73 803.61 1330.93 803.61ZM1351.89 790.14C1353.87 790.14 1355.47 790.77 1356.69 792.03C1357.91 793.27 1358.52 795.01 1358.52 797.25V807H1354.32V797.82C1354.32 796.5 1353.99 795.49 1353.33 794.79C1352.67 794.07 1351.77 793.71 1350.63 793.71C1349.47 793.71 1348.55 794.07 1347.87 794.79C1347.21 795.49 1346.88 796.5 1346.88 797.82V807H1342.68V790.38H1346.88V792.45C1347.44 791.73 1348.15 791.17 1349.01 790.77C1349.89 790.35 1350.85 790.14 1351.89 790.14ZM1374.55 793.83V801.87C1374.55 802.43 1374.68 802.84 1374.94 803.1C1375.22 803.34 1375.68 803.46 1376.32 803.46H1378.27V807H1375.63C1372.09 807 1370.32 805.28 1370.32 801.84V793.83H1368.34V790.38H1370.32V786.27H1374.55V790.38H1378.27V793.83H1374.55ZM1390.65 790.14C1391.91 790.14 1393.03 790.42 1394.01 790.98C1394.99 791.52 1395.75 792.33 1396.29 793.41C1396.85 794.47 1397.13 795.75 1397.13 797.25V807H1392.93V797.82C1392.93 796.5 1392.6 795.49 1391.94 794.79C1391.28 794.07 1390.38 793.71 1389.24 793.71C1388.08 793.71 1387.16 794.07 1386.48 794.79C1385.82 795.49 1385.49 796.5 1385.49 797.82V807H1381.29V784.8H1385.49V792.45C1386.03 791.73 1386.75 791.17 1387.65 790.77C1388.55 790.35 1389.55 790.14 1390.65 790.14ZM1416.58 798.33C1416.58 798.93 1416.54 799.47 1416.46 799.95H1404.31C1404.41 801.15 1404.83 802.09 1405.57 802.77C1406.31 803.45 1407.22 803.79 1408.3 803.79C1409.86 803.79 1410.97 803.12 1411.63 801.78H1416.16C1415.68 803.38 1414.76 804.7 1413.4 805.74C1412.04 806.76 1410.37 807.27 1408.39 807.27C1406.79 807.27 1405.35 806.92 1404.07 806.22C1402.81 805.5 1401.82 804.49 1401.1 803.19C1400.4 801.89 1400.05 800.39 1400.05 798.69C1400.05 796.97 1400.4 795.46 1401.1 794.16C1401.8 792.86 1402.78 791.86 1404.04 791.16C1405.3 790.46 1406.75 790.11 1408.39 790.11C1409.97 790.11 1411.38 790.45 1412.62 791.13C1413.88 791.81 1414.85 792.78 1415.53 794.04C1416.23 795.28 1416.58 796.71 1416.58 798.33ZM1412.23 797.13C1412.21 796.05 1411.82 795.19 1411.06 794.55C1410.3 793.89 1409.37 793.56 1408.27 793.56C1407.23 793.56 1406.35 793.88 1405.63 794.52C1404.93 795.14 1404.5 796.01 1404.34 797.13H1412.23ZM1433.15 807.27C1431.79 807.27 1430.57 807.03 1429.49 806.55C1428.41 806.05 1427.55 805.38 1426.91 804.54C1426.29 803.7 1425.95 802.77 1425.89 801.75H1430.12C1430.2 802.39 1430.51 802.92 1431.05 803.34C1431.61 803.76 1432.3 803.97 1433.12 803.97C1433.92 803.97 1434.54 803.81 1434.98 803.49C1435.44 803.17 1435.67 802.76 1435.67 802.26C1435.67 801.72 1435.39 801.32 1434.83 801.06C1434.29 800.78 1433.42 800.48 1432.22 800.16C1430.98 799.86 1429.96 799.55 1429.16 799.23C1428.38 798.91 1427.7 798.42 1427.12 797.76C1426.56 797.1 1426.28 796.21 1426.28 795.09C1426.28 794.17 1426.54 793.33 1427.06 792.57C1427.6 791.81 1428.36 791.21 1429.34 790.77C1430.34 790.33 1431.51 790.11 1432.85 790.11C1434.83 790.11 1436.41 790.61 1437.59 791.61C1438.77 792.59 1439.42 793.92 1439.54 795.6H1435.52C1435.46 794.94 1435.18 794.42 1434.68 794.04C1434.2 793.64 1433.55 793.44 1432.73 793.44C1431.97 793.44 1431.38 793.58 1430.96 793.86C1430.56 794.14 1430.36 794.53 1430.36 795.03C1430.36 795.59 1430.64 796.02 1431.2 796.32C1431.76 796.6 1432.63 796.89 1433.81 797.19C1435.01 797.49 1436 797.8 1436.78 798.12C1437.56 798.44 1438.23 798.94 1438.79 799.62C1439.37 800.28 1439.67 801.16 1439.69 802.26C1439.69 803.22 1439.42 804.08 1438.88 804.84C1438.36 805.6 1437.6 806.2 1436.6 806.64C1435.62 807.06 1434.47 807.27 1433.15 807.27ZM1448.03 793.83V801.87C1448.03 802.43 1448.16 802.84 1448.42 803.1C1448.7 803.34 1449.16 803.46 1449.8 803.46H1451.75V807H1449.11C1445.57 807 1443.8 805.28 1443.8 801.84V793.83H1441.82V790.38H1443.8V786.27H1448.03V790.38H1451.75V793.83H1448.03ZM1453.69 798.63C1453.69 796.95 1454.02 795.46 1454.68 794.16C1455.36 792.86 1456.27 791.86 1457.41 791.16C1458.57 790.46 1459.86 790.11 1461.28 790.11C1462.52 790.11 1463.6 790.36 1464.52 790.86C1465.46 791.36 1466.21 791.99 1466.77 792.75V790.38H1471V807H1466.77V804.57C1466.23 805.35 1465.48 806 1464.52 806.52C1463.58 807.02 1462.49 807.27 1461.25 807.27C1459.85 807.27 1458.57 806.91 1457.41 806.19C1456.27 805.47 1455.36 804.46 1454.68 803.16C1454.02 801.84 1453.69 800.33 1453.69 798.63ZM1466.77 798.69C1466.77 797.67 1466.57 796.8 1466.17 796.08C1465.77 795.34 1465.23 794.78 1464.55 794.4C1463.87 794 1463.14 793.8 1462.36 793.8C1461.58 793.8 1460.86 793.99 1460.2 794.37C1459.54 794.75 1459 795.31 1458.58 796.05C1458.18 796.77 1457.98 797.63 1457.98 798.63C1457.98 799.63 1458.18 800.51 1458.58 801.27C1459 802.01 1459.54 802.58 1460.2 802.98C1460.88 803.38 1461.6 803.58 1462.36 803.58C1463.14 803.58 1463.87 803.39 1464.55 803.01C1465.23 802.61 1465.77 802.05 1466.17 801.33C1466.57 800.59 1466.77 799.71 1466.77 798.69ZM1479.3 792.96C1479.84 792.08 1480.54 791.39 1481.4 790.89C1482.28 790.39 1483.28 790.14 1484.4 790.14V794.55H1483.29C1481.97 794.55 1480.97 794.86 1480.29 795.48C1479.63 796.1 1479.3 797.18 1479.3 798.72V807H1475.1V790.38H1479.3V792.96ZM1493.59 807.27C1492.23 807.27 1491.01 807.03 1489.93 806.55C1488.85 806.05 1487.99 805.38 1487.35 804.54C1486.73 803.7 1486.39 802.77 1486.33 801.75H1490.56C1490.64 802.39 1490.95 802.92 1491.49 803.34C1492.05 803.76 1492.74 803.97 1493.56 803.97C1494.36 803.97 1494.98 803.81 1495.42 803.49C1495.88 803.17 1496.11 802.76 1496.11 802.26C1496.11 801.72 1495.83 801.32 1495.27 801.06C1494.73 800.78 1493.86 800.48 1492.66 800.16C1491.42 799.86 1490.4 799.55 1489.6 799.23C1488.82 798.91 1488.14 798.42 1487.56 797.76C1487 797.1 1486.72 796.21 1486.72 795.09C1486.72 794.17 1486.98 793.33 1487.5 792.57C1488.04 791.81 1488.8 791.21 1489.78 790.77C1490.78 790.33 1491.95 790.11 1493.29 790.11C1495.27 790.11 1496.85 790.61 1498.03 791.61C1499.21 792.59 1499.86 793.92 1499.98 795.6H1495.96C1495.9 794.94 1495.62 794.42 1495.12 794.04C1494.64 793.64 1493.99 793.44 1493.17 793.44C1492.41 793.44 1491.82 793.58 1491.4 793.86C1491 794.14 1490.8 794.53 1490.8 795.03C1490.8 795.59 1491.08 796.02 1491.64 796.32C1492.2 796.6 1493.07 796.89 1494.25 797.19C1495.45 797.49 1496.44 797.8 1497.22 798.12C1498 798.44 1498.67 798.94 1499.23 799.62C1499.81 800.28 1500.11 801.16 1500.13 802.26C1500.13 803.22 1499.86 804.08 1499.32 804.84C1498.8 805.6 1498.04 806.2 1497.04 806.64C1496.06 807.06 1494.91 807.27 1493.59 807.27Z" fill="#F9BAD1"/>
<path d="M301.753 455.75C301.753 454.05 302.093 452.57 302.773 451.31C303.453 450.03 304.393 449.04 305.593 448.34C306.813 447.64 308.203 447.29 309.763 447.29C311.783 447.29 313.443 447.78 314.743 448.76C316.063 449.74 316.933 451.1 317.353 452.84H314.413C314.133 451.84 313.583 451.05 312.763 450.47C311.963 449.89 310.963 449.6 309.763 449.6C308.203 449.6 306.943 450.14 305.983 451.22C305.023 452.28 304.543 453.79 304.543 455.75C304.543 457.73 305.023 459.26 305.983 460.34C306.943 461.42 308.203 461.96 309.763 461.96C310.963 461.96 311.963 461.68 312.763 461.12C313.563 460.56 314.113 459.76 314.413 458.72H317.353C316.913 460.4 316.033 461.75 314.713 462.77C313.393 463.77 311.743 464.27 309.763 464.27C308.203 464.27 306.813 463.92 305.593 463.22C304.393 462.52 303.453 461.53 302.773 460.25C302.093 458.97 301.753 457.47 301.753 455.75ZM323.726 441.8V464H320.996V441.8H323.726ZM329.788 444.89C329.268 444.89 328.828 444.71 328.468 444.35C328.108 443.99 327.928 443.55 327.928 443.03C327.928 442.51 328.108 442.07 328.468 441.71C328.828 441.35 329.268 441.17 329.788 441.17C330.288 441.17 330.708 441.35 331.048 441.71C331.408 442.07 331.588 442.51 331.588 443.03C331.588 443.55 331.408 443.99 331.048 444.35C330.708 444.71 330.288 444.89 329.788 444.89ZM331.108 447.56V464H328.378V447.56H331.108ZM334.741 455.75C334.741 454.05 335.081 452.57 335.761 451.31C336.441 450.03 337.381 449.04 338.581 448.34C339.801 447.64 341.191 447.29 342.751 447.29C344.771 447.29 346.431 447.78 347.731 448.76C349.051 449.74 349.921 451.1 350.341 452.84H347.401C347.121 451.84 346.571 451.05 345.751 450.47C344.951 449.89 343.951 449.6 342.751 449.6C341.191 449.6 339.931 450.14 338.971 451.22C338.011 452.28 337.531 453.79 337.531 455.75C337.531 457.73 338.011 459.26 338.971 460.34C339.931 461.42 341.191 461.96 342.751 461.96C343.951 461.96 344.951 461.68 345.751 461.12C346.551 460.56 347.101 459.76 347.401 458.72H350.341C349.901 460.4 349.021 461.75 347.701 462.77C346.381 463.77 344.731 464.27 342.751 464.27C341.191 464.27 339.801 463.92 338.581 463.22C337.381 462.52 336.441 461.53 335.761 460.25C335.081 458.97 334.741 457.47 334.741 455.75ZM363.164 464L356.714 456.74V464H353.984V441.8H356.714V454.85L363.044 447.56H366.854L359.114 455.75L366.884 464H363.164ZM384.591 464.27C383.051 464.27 381.651 463.92 380.391 463.22C379.151 462.52 378.171 461.53 377.451 460.25C376.751 458.95 376.401 457.45 376.401 455.75C376.401 454.07 376.761 452.59 377.481 451.31C378.221 450.01 379.221 449.02 380.481 448.34C381.741 447.64 383.151 447.29 384.711 447.29C386.271 447.29 387.681 447.64 388.941 448.34C390.201 449.02 391.191 450 391.911 451.28C392.651 452.56 393.021 454.05 393.021 455.75C393.021 457.45 392.641 458.95 391.881 460.25C391.141 461.53 390.131 462.52 388.851 463.22C387.571 463.92 386.151 464.27 384.591 464.27ZM384.591 461.87C385.571 461.87 386.491 461.64 387.351 461.18C388.211 460.72 388.901 460.03 389.421 459.11C389.961 458.19 390.231 457.07 390.231 455.75C390.231 454.43 389.971 453.31 389.451 452.39C388.931 451.47 388.251 450.79 387.411 450.35C386.571 449.89 385.661 449.66 384.681 449.66C383.681 449.66 382.761 449.89 381.921 450.35C381.101 450.79 380.441 451.47 379.941 452.39C379.441 453.31 379.191 454.43 379.191 455.75C379.191 457.09 379.431 458.22 379.911 459.14C380.411 460.06 381.071 460.75 381.891 461.21C382.711 461.65 383.611 461.87 384.591 461.87ZM404.621 447.26C406.621 447.26 408.241 447.87 409.481 449.09C410.721 450.29 411.341 452.03 411.341 454.31V464H408.641V454.7C408.641 453.06 408.231 451.81 407.411 450.95C406.591 450.07 405.471 449.63 404.051 449.63C402.611 449.63 401.461 450.08 400.601 450.98C399.761 451.88 399.341 453.19 399.341 454.91V464H396.611V447.56H399.341V449.9C399.881 449.06 400.611 448.41 401.531 447.95C402.471 447.49 403.501 447.26 404.621 447.26ZM427.128 449.81V459.5C427.128 460.3 427.298 460.87 427.638 461.21C427.978 461.53 428.568 461.69 429.408 461.69H431.418V464H428.958C427.438 464 426.298 463.65 425.538 462.95C424.778 462.25 424.398 461.1 424.398 459.5V449.81H422.268V447.56H424.398V443.42H427.128V447.56H431.418V449.81H427.128ZM442.886 447.26C444.126 447.26 445.246 447.53 446.246 448.07C447.246 448.59 448.026 449.38 448.586 450.44C449.166 451.5 449.456 452.79 449.456 454.31V464H446.756V454.7C446.756 453.06 446.346 451.81 445.526 450.95C444.706 450.07 443.586 449.63 442.166 449.63C440.726 449.63 439.576 450.08 438.716 450.98C437.876 451.88 437.456 453.19 437.456 454.91V464H434.726V441.8H437.456V449.9C437.996 449.06 438.736 448.41 439.676 447.95C440.636 447.49 441.706 447.26 442.886 447.26ZM468.915 455.15C468.915 455.67 468.885 456.22 468.825 456.8H455.685C455.785 458.42 456.335 459.69 457.335 460.61C458.355 461.51 459.585 461.96 461.025 461.96C462.205 461.96 463.185 461.69 463.965 461.15C464.765 460.59 465.325 459.85 465.645 458.93H468.585C468.145 460.51 467.265 461.8 465.945 462.8C464.625 463.78 462.985 464.27 461.025 464.27C459.465 464.27 458.065 463.92 456.825 463.22C455.605 462.52 454.645 461.53 453.945 460.25C453.245 458.95 452.895 457.45 452.895 455.75C452.895 454.05 453.235 452.56 453.915 451.28C454.595 450 455.545 449.02 456.765 448.34C458.005 447.64 459.425 447.29 461.025 447.29C462.585 447.29 463.965 447.63 465.165 448.31C466.365 448.99 467.285 449.93 467.925 451.13C468.585 452.31 468.915 453.65 468.915 455.15ZM466.095 454.58C466.095 453.54 465.865 452.65 465.405 451.91C464.945 451.15 464.315 450.58 463.515 450.2C462.735 449.8 461.865 449.6 460.905 449.6C459.525 449.6 458.345 450.04 457.365 450.92C456.405 451.8 455.855 453.02 455.715 454.58H466.095ZM486.337 464.27C485.077 464.27 483.947 464.06 482.947 463.64C481.947 463.2 481.157 462.6 480.577 461.84C479.997 461.06 479.677 460.17 479.617 459.17H482.437C482.517 459.99 482.897 460.66 483.577 461.18C484.277 461.7 485.187 461.96 486.307 461.96C487.347 461.96 488.167 461.73 488.767 461.27C489.367 460.81 489.667 460.23 489.667 459.53C489.667 458.81 489.347 458.28 488.707 457.94C488.067 457.58 487.077 457.23 485.737 456.89C484.517 456.57 483.517 456.25 482.737 455.93C481.977 455.59 481.317 455.1 480.757 454.46C480.217 453.8 479.947 452.94 479.947 451.88C479.947 451.04 480.197 450.27 480.697 449.57C481.197 448.87 481.907 448.32 482.827 447.92C483.747 447.5 484.797 447.29 485.977 447.29C487.797 447.29 489.267 447.75 490.387 448.67C491.507 449.59 492.107 450.85 492.187 452.45H489.457C489.397 451.59 489.047 450.9 488.407 450.38C487.787 449.86 486.947 449.6 485.887 449.6C484.907 449.6 484.127 449.81 483.547 450.23C482.967 450.65 482.677 451.2 482.677 451.88C482.677 452.42 482.847 452.87 483.187 453.23C483.547 453.57 483.987 453.85 484.507 454.07C485.047 454.27 485.787 454.5 486.727 454.76C487.907 455.08 488.867 455.4 489.607 455.72C490.347 456.02 490.977 456.48 491.497 457.1C492.037 457.72 492.317 458.53 492.337 459.53C492.337 460.43 492.087 461.24 491.587 461.96C491.087 462.68 490.377 463.25 489.457 463.67C488.557 464.07 487.517 464.27 486.337 464.27ZM499.521 449.81V459.5C499.521 460.3 499.691 460.87 500.031 461.21C500.371 461.53 500.961 461.69 501.801 461.69H503.811V464H501.351C499.831 464 498.691 463.65 497.931 462.95C497.171 462.25 496.791 461.1 496.791 459.5V449.81H494.661V447.56H496.791V443.42H499.521V447.56H503.811V449.81H499.521ZM506.099 455.72C506.099 454.04 506.439 452.57 507.119 451.31C507.799 450.03 508.729 449.04 509.909 448.34C511.109 447.64 512.439 447.29 513.899 447.29C515.339 447.29 516.589 447.6 517.649 448.22C518.709 448.84 519.499 449.62 520.019 450.56V447.56H522.779V464H520.019V460.94C519.479 461.9 518.669 462.7 517.589 463.34C516.529 463.96 515.289 464.27 513.869 464.27C512.409 464.27 511.089 463.91 509.909 463.19C508.729 462.47 507.799 461.46 507.119 460.16C506.439 458.86 506.099 457.38 506.099 455.72ZM520.019 455.75C520.019 454.51 519.769 453.43 519.269 452.51C518.769 451.59 518.089 450.89 517.229 450.41C516.389 449.91 515.459 449.66 514.439 449.66C513.419 449.66 512.489 449.9 511.649 450.38C510.809 450.86 510.139 451.56 509.639 452.48C509.139 453.4 508.889 454.48 508.889 455.72C508.889 456.98 509.139 458.08 509.639 459.02C510.139 459.94 510.809 460.65 511.649 461.15C512.489 461.63 513.419 461.87 514.439 461.87C515.459 461.87 516.389 461.63 517.229 461.15C518.089 460.65 518.769 459.94 519.269 459.02C519.769 458.08 520.019 456.99 520.019 455.75ZM530.122 450.23C530.602 449.29 531.282 448.56 532.162 448.04C533.062 447.52 534.152 447.26 535.432 447.26V450.08H534.712C531.652 450.08 530.122 451.74 530.122 455.06V464H527.392V447.56H530.122V450.23ZM544.403 464.27C543.143 464.27 542.013 464.06 541.013 463.64C540.013 463.2 539.223 462.6 538.643 461.84C538.063 461.06 537.743 460.17 537.683 459.17H540.503C540.583 459.99 540.963 460.66 541.643 461.18C542.343 461.7 543.253 461.96 544.373 461.96C545.413 461.96 546.233 461.73 546.833 461.27C547.433 460.81 547.733 460.23 547.733 459.53C547.733 458.81 547.413 458.28 546.773 457.94C546.133 457.58 545.143 457.23 543.803 456.89C542.583 456.57 541.583 456.25 540.803 455.93C540.043 455.59 539.383 455.1 538.823 454.46C538.283 453.8 538.013 452.94 538.013 451.88C538.013 451.04 538.263 450.27 538.763 449.57C539.263 448.87 539.973 448.32 540.893 447.92C541.813 447.5 542.863 447.29 544.043 447.29C545.863 447.29 547.333 447.75 548.453 448.67C549.573 449.59 550.173 450.85 550.253 452.45H547.523C547.463 451.59 547.113 450.9 546.473 450.38C545.853 449.86 545.013 449.6 543.953 449.6C542.973 449.6 542.193 449.81 541.613 450.23C541.033 450.65 540.743 451.2 540.743 451.88C540.743 452.42 540.913 452.87 541.253 453.23C541.613 453.57 542.053 453.85 542.573 454.07C543.113 454.27 543.853 454.5 544.793 454.76C545.973 455.08 546.933 455.4 547.673 455.72C548.413 456.02 549.043 456.48 549.563 457.1C550.103 457.72 550.383 458.53 550.403 459.53C550.403 460.43 550.153 461.24 549.653 461.96C549.153 462.68 548.443 463.25 547.523 463.67C546.623 464.07 545.583 464.27 544.403 464.27ZM563.557 443.9L564.637 445.85L560.467 447.59L564.667 449.3L563.527 451.31L559.897 448.67L560.377 453.2H558.127L558.577 448.67L554.947 451.34L553.777 449.3L557.947 447.56L553.777 445.88L554.887 443.87L558.607 446.54L558.127 441.98H560.407L559.897 446.54L563.557 443.9Z" fill="#F9BAD1"/>
<path d="M1.75289 187.75C1.75289 186.05 2.09289 184.57 2.77289 183.31C3.45289 182.03 4.39289 181.04 5.59289 180.34C6.81289 179.64 8.20289 179.29 9.76289 179.29C11.7829 179.29 13.4429 179.78 14.7429 180.76C16.0629 181.74 16.9329 183.1 17.3529 184.84H14.4129C14.1329 183.84 13.5829 183.05 12.7629 182.47C11.9629 181.89 10.9629 181.6 9.76289 181.6C8.20289 181.6 6.94289 182.14 5.98289 183.22C5.02289 184.28 4.54289 185.79 4.54289 187.75C4.54289 189.73 5.02289 191.26 5.98289 192.34C6.94289 193.42 8.20289 193.96 9.76289 193.96C10.9629 193.96 11.9629 193.68 12.7629 193.12C13.5629 192.56 14.1129 191.76 14.4129 190.72H17.3529C16.9129 192.4 16.0329 193.75 14.7129 194.77C13.3929 195.77 11.7429 196.27 9.76289 196.27C8.20289 196.27 6.81289 195.92 5.59289 195.22C4.39289 194.52 3.45289 193.53 2.77289 192.25C2.09289 190.97 1.75289 189.47 1.75289 187.75ZM23.7255 173.8V196H20.9955V173.8H23.7255ZM29.7884 176.89C29.2684 176.89 28.8284 176.71 28.4684 176.35C28.1084 175.99 27.9284 175.55 27.9284 175.03C27.9284 174.51 28.1084 174.07 28.4684 173.71C28.8284 173.35 29.2684 173.17 29.7884 173.17C30.2884 173.17 30.7084 173.35 31.0484 173.71C31.4084 174.07 31.5884 174.51 31.5884 175.03C31.5884 175.55 31.4084 175.99 31.0484 176.35C30.7084 176.71 30.2884 176.89 29.7884 176.89ZM31.1084 179.56V196H28.3784V179.56H31.1084ZM34.7412 187.75C34.7412 186.05 35.0812 184.57 35.7612 183.31C36.4412 182.03 37.3812 181.04 38.5812 180.34C39.8012 179.64 41.1912 179.29 42.7512 179.29C44.7712 179.29 46.4312 179.78 47.7312 180.76C49.0512 181.74 49.9212 183.1 50.3412 184.84H47.4012C47.1212 183.84 46.5712 183.05 45.7512 182.47C44.9512 181.89 43.9512 181.6 42.7512 181.6C41.1912 181.6 39.9312 182.14 38.9712 183.22C38.0112 184.28 37.5312 185.79 37.5312 187.75C37.5312 189.73 38.0112 191.26 38.9712 192.34C39.9312 193.42 41.1912 193.96 42.7512 193.96C43.9512 193.96 44.9512 193.68 45.7512 193.12C46.5512 192.56 47.1012 191.76 47.4012 190.72H50.3412C49.9012 192.4 49.0212 193.75 47.7012 194.77C46.3812 195.77 44.7312 196.27 42.7512 196.27C41.1912 196.27 39.8012 195.92 38.5812 195.22C37.3812 194.52 36.4412 193.53 35.7612 192.25C35.0812 190.97 34.7412 189.47 34.7412 187.75ZM63.1638 196L56.7138 188.74V196H53.9838V173.8H56.7138V186.85L63.0438 179.56H66.8538L59.1138 187.75L66.8838 196H63.1638ZM84.5913 196.27C83.0513 196.27 81.6513 195.92 80.3913 195.22C79.1513 194.52 78.1713 193.53 77.4513 192.25C76.7513 190.95 76.4013 189.45 76.4013 187.75C76.4013 186.07 76.7613 184.59 77.4813 183.31C78.2213 182.01 79.2213 181.02 80.4813 180.34C81.7413 179.64 83.1513 179.29 84.7113 179.29C86.2713 179.29 87.6813 179.64 88.9413 180.34C90.2013 181.02 91.1913 182 91.9113 183.28C92.6513 184.56 93.0213 186.05 93.0213 187.75C93.0213 189.45 92.6413 190.95 91.8813 192.25C91.1413 193.53 90.1313 194.52 88.8513 195.22C87.5713 195.92 86.1513 196.27 84.5913 196.27ZM84.5913 193.87C85.5713 193.87 86.4913 193.64 87.3513 193.18C88.2113 192.72 88.9013 192.03 89.4213 191.11C89.9613 190.19 90.2313 189.07 90.2313 187.75C90.2313 186.43 89.9713 185.31 89.4513 184.39C88.9313 183.47 88.2513 182.79 87.4113 182.35C86.5713 181.89 85.6613 181.66 84.6813 181.66C83.6813 181.66 82.7613 181.89 81.9213 182.35C81.1013 182.79 80.4413 183.47 79.9413 184.39C79.4413 185.31 79.1913 186.43 79.1913 187.75C79.1913 189.09 79.4313 190.22 79.9113 191.14C80.4113 192.06 81.0713 192.75 81.8913 193.21C82.7113 193.65 83.6113 193.87 84.5913 193.87ZM104.621 179.26C106.621 179.26 108.241 179.87 109.481 181.09C110.721 182.29 111.341 184.03 111.341 186.31V196H108.641V186.7C108.641 185.06 108.231 183.81 107.411 182.95C106.591 182.07 105.471 181.63 104.051 181.63C102.611 181.63 101.461 182.08 100.601 182.98C99.7608 183.88 99.3408 185.19 99.3408 186.91V196H96.6108V179.56H99.3408V181.9C99.8808 181.06 100.611 180.41 101.531 179.95C102.471 179.49 103.501 179.26 104.621 179.26ZM127.128 181.81V191.5C127.128 192.3 127.298 192.87 127.638 193.21C127.978 193.53 128.568 193.69 129.408 193.69H131.418V196H128.958C127.438 196 126.298 195.65 125.538 194.95C124.778 194.25 124.398 193.1 124.398 191.5V181.81H122.268V179.56H124.398V175.42H127.128V179.56H131.418V181.81H127.128ZM142.886 179.26C144.126 179.26 145.246 179.53 146.246 180.07C147.246 180.59 148.026 181.38 148.586 182.44C149.166 183.5 149.456 184.79 149.456 186.31V196H146.756V186.7C146.756 185.06 146.346 183.81 145.526 182.95C144.706 182.07 143.586 181.63 142.166 181.63C140.726 181.63 139.576 182.08 138.716 182.98C137.876 183.88 137.456 185.19 137.456 186.91V196H134.726V173.8H137.456V181.9C137.996 181.06 138.736 180.41 139.676 179.95C140.636 179.49 141.706 179.26 142.886 179.26ZM168.915 187.15C168.915 187.67 168.885 188.22 168.825 188.8H155.685C155.785 190.42 156.335 191.69 157.335 192.61C158.355 193.51 159.585 193.96 161.025 193.96C162.205 193.96 163.185 193.69 163.965 193.15C164.765 192.59 165.325 191.85 165.645 190.93H168.585C168.145 192.51 167.265 193.8 165.945 194.8C164.625 195.78 162.985 196.27 161.025 196.27C159.465 196.27 158.065 195.92 156.825 195.22C155.605 194.52 154.645 193.53 153.945 192.25C153.245 190.95 152.895 189.45 152.895 187.75C152.895 186.05 153.235 184.56 153.915 183.28C154.595 182 155.545 181.02 156.765 180.34C158.005 179.64 159.425 179.29 161.025 179.29C162.585 179.29 163.965 179.63 165.165 180.31C166.365 180.99 167.285 181.93 167.925 183.13C168.585 184.31 168.915 185.65 168.915 187.15ZM166.095 186.58C166.095 185.54 165.865 184.65 165.405 183.91C164.945 183.15 164.315 182.58 163.515 182.2C162.735 181.8 161.865 181.6 160.905 181.6C159.525 181.6 158.345 182.04 157.365 182.92C156.405 183.8 155.855 185.02 155.715 186.58H166.095ZM186.337 196.27C185.077 196.27 183.947 196.06 182.947 195.64C181.947 195.2 181.157 194.6 180.577 193.84C179.997 193.06 179.677 192.17 179.617 191.17H182.437C182.517 191.99 182.897 192.66 183.577 193.18C184.277 193.7 185.187 193.96 186.307 193.96C187.347 193.96 188.167 193.73 188.767 193.27C189.367 192.81 189.667 192.23 189.667 191.53C189.667 190.81 189.347 190.28 188.707 189.94C188.067 189.58 187.077 189.23 185.737 188.89C184.517 188.57 183.517 188.25 182.737 187.93C181.977 187.59 181.317 187.1 180.757 186.46C180.217 185.8 179.947 184.94 179.947 183.88C179.947 183.04 180.197 182.27 180.697 181.57C181.197 180.87 181.907 180.32 182.827 179.92C183.747 179.5 184.797 179.29 185.977 179.29C187.797 179.29 189.267 179.75 190.387 180.67C191.507 181.59 192.107 182.85 192.187 184.45H189.457C189.397 183.59 189.047 182.9 188.407 182.38C187.787 181.86 186.947 181.6 185.887 181.6C184.907 181.6 184.127 181.81 183.547 182.23C182.967 182.65 182.677 183.2 182.677 183.88C182.677 184.42 182.847 184.87 183.187 185.23C183.547 185.57 183.987 185.85 184.507 186.07C185.047 186.27 185.787 186.5 186.727 186.76C187.907 187.08 188.867 187.4 189.607 187.72C190.347 188.02 190.977 188.48 191.497 189.1C192.037 189.72 192.317 190.53 192.337 191.53C192.337 192.43 192.087 193.24 191.587 193.96C191.087 194.68 190.377 195.25 189.457 195.67C188.557 196.07 187.517 196.27 186.337 196.27ZM199.521 181.81V191.5C199.521 192.3 199.691 192.87 200.031 193.21C200.371 193.53 200.961 193.69 201.801 193.69H203.811V196H201.351C199.831 196 198.691 195.65 197.931 194.95C197.171 194.25 196.791 193.1 196.791 191.5V181.81H194.661V179.56H196.791V175.42H199.521V179.56H203.811V181.81H199.521ZM206.099 187.72C206.099 186.04 206.439 184.57 207.119 183.31C207.799 182.03 208.729 181.04 209.909 180.34C211.109 179.64 212.439 179.29 213.899 179.29C215.339 179.29 216.589 179.6 217.649 180.22C218.709 180.84 219.499 181.62 220.019 182.56V179.56H222.779V196H220.019V192.94C219.479 193.9 218.669 194.7 217.589 195.34C216.529 195.96 215.289 196.27 213.869 196.27C212.409 196.27 211.089 195.91 209.909 195.19C208.729 194.47 207.799 193.46 207.119 192.16C206.439 190.86 206.099 189.38 206.099 187.72ZM220.019 187.75C220.019 186.51 219.769 185.43 219.269 184.51C218.769 183.59 218.089 182.89 217.229 182.41C216.389 181.91 215.459 181.66 214.439 181.66C213.419 181.66 212.489 181.9 211.649 182.38C210.809 182.86 210.139 183.56 209.639 184.48C209.139 185.4 208.889 186.48 208.889 187.72C208.889 188.98 209.139 190.08 209.639 191.02C210.139 191.94 210.809 192.65 211.649 193.15C212.489 193.63 213.419 193.87 214.439 193.87C215.459 193.87 216.389 193.63 217.229 193.15C218.089 192.65 218.769 191.94 219.269 191.02C219.769 190.08 220.019 188.99 220.019 187.75ZM230.122 182.23C230.602 181.29 231.282 180.56 232.162 180.04C233.062 179.52 234.152 179.26 235.432 179.26V182.08H234.712C231.652 182.08 230.122 183.74 230.122 187.06V196H227.392V179.56H230.122V182.23ZM244.403 196.27C243.143 196.27 242.013 196.06 241.013 195.64C240.013 195.2 239.223 194.6 238.643 193.84C238.063 193.06 237.743 192.17 237.683 191.17H240.503C240.583 191.99 240.963 192.66 241.643 193.18C242.343 193.7 243.253 193.96 244.373 193.96C245.413 193.96 246.233 193.73 246.833 193.27C247.433 192.81 247.733 192.23 247.733 191.53C247.733 190.81 247.413 190.28 246.773 189.94C246.133 189.58 245.143 189.23 243.803 188.89C242.583 188.57 241.583 188.25 240.803 187.93C240.043 187.59 239.383 187.1 238.823 186.46C238.283 185.8 238.013 184.94 238.013 183.88C238.013 183.04 238.263 182.27 238.763 181.57C239.263 180.87 239.973 180.32 240.893 179.92C241.813 179.5 242.863 179.29 244.043 179.29C245.863 179.29 247.333 179.75 248.453 180.67C249.573 181.59 250.173 182.85 250.253 184.45H247.523C247.463 183.59 247.113 182.9 246.473 182.38C245.853 181.86 245.013 181.6 243.953 181.6C242.973 181.6 242.193 181.81 241.613 182.23C241.033 182.65 240.743 183.2 240.743 183.88C240.743 184.42 240.913 184.87 241.253 185.23C241.613 185.57 242.053 185.85 242.573 186.07C243.113 186.27 243.853 186.5 244.793 186.76C245.973 187.08 246.933 187.4 247.673 187.72C248.413 188.02 249.043 188.48 249.563 189.1C250.103 189.72 250.383 190.53 250.403 191.53C250.403 192.43 250.153 193.24 249.653 193.96C249.153 194.68 248.443 195.25 247.523 195.67C246.623 196.07 245.583 196.27 244.403 196.27ZM263.557 175.9L264.637 177.85L260.467 179.59L264.667 181.3L263.527 183.31L259.897 180.67L260.377 185.2H258.127L258.577 180.67L254.947 183.34L253.777 181.3L257.947 179.56L253.777 177.88L254.887 175.87L258.607 178.54L258.127 173.98H260.407L259.897 178.54L263.557 175.9Z" fill="#F9BAD1"/>
<path d="M93.7529 1016.75C93.7529 1015.05 94.0929 1013.57 94.7729 1012.31C95.4529 1011.03 96.3929 1010.04 97.5929 1009.34C98.8129 1008.64 100.203 1008.29 101.763 1008.29C103.783 1008.29 105.443 1008.78 106.743 1009.76C108.063 1010.74 108.933 1012.1 109.353 1013.84H106.413C106.133 1012.84 105.583 1012.05 104.763 1011.47C103.963 1010.89 102.963 1010.6 101.763 1010.6C100.203 1010.6 98.9429 1011.14 97.9829 1012.22C97.0229 1013.28 96.5429 1014.79 96.5429 1016.75C96.5429 1018.73 97.0229 1020.26 97.9829 1021.34C98.9429 1022.42 100.203 1022.96 101.763 1022.96C102.963 1022.96 103.963 1022.68 104.763 1022.12C105.563 1021.56 106.113 1020.76 106.413 1019.72H109.353C108.913 1021.4 108.033 1022.75 106.713 1023.77C105.393 1024.77 103.743 1025.27 101.763 1025.27C100.203 1025.27 98.8129 1024.92 97.5929 1024.22C96.3929 1023.52 95.4529 1022.53 94.7729 1021.25C94.0929 1019.97 93.7529 1018.47 93.7529 1016.75ZM115.726 1002.8V1025H112.996V1002.8H115.726ZM121.788 1005.89C121.268 1005.89 120.828 1005.71 120.468 1005.35C120.108 1004.99 119.928 1004.55 119.928 1004.03C119.928 1003.51 120.108 1003.07 120.468 1002.71C120.828 1002.35 121.268 1002.17 121.788 1002.17C122.288 1002.17 122.708 1002.35 123.048 1002.71C123.408 1003.07 123.588 1003.51 123.588 1004.03C123.588 1004.55 123.408 1004.99 123.048 1005.35C122.708 1005.71 122.288 1005.89 121.788 1005.89ZM123.108 1008.56V1025H120.378V1008.56H123.108ZM126.741 1016.75C126.741 1015.05 127.081 1013.57 127.761 1012.31C128.441 1011.03 129.381 1010.04 130.581 1009.34C131.801 1008.64 133.191 1008.29 134.751 1008.29C136.771 1008.29 138.431 1008.78 139.731 1009.76C141.051 1010.74 141.921 1012.1 142.341 1013.84H139.401C139.121 1012.84 138.571 1012.05 137.751 1011.47C136.951 1010.89 135.951 1010.6 134.751 1010.6C133.191 1010.6 131.931 1011.14 130.971 1012.22C130.011 1013.28 129.531 1014.79 129.531 1016.75C129.531 1018.73 130.011 1020.26 130.971 1021.34C131.931 1022.42 133.191 1022.96 134.751 1022.96C135.951 1022.96 136.951 1022.68 137.751 1022.12C138.551 1021.56 139.101 1020.76 139.401 1019.72H142.341C141.901 1021.4 141.021 1022.75 139.701 1023.77C138.381 1024.77 136.731 1025.27 134.751 1025.27C133.191 1025.27 131.801 1024.92 130.581 1024.22C129.381 1023.52 128.441 1022.53 127.761 1021.25C127.081 1019.97 126.741 1018.47 126.741 1016.75ZM155.164 1025L148.714 1017.74V1025H145.984V1002.8H148.714V1015.85L155.044 1008.56H158.854L151.114 1016.75L158.884 1025H155.164ZM176.591 1025.27C175.051 1025.27 173.651 1024.92 172.391 1024.22C171.151 1023.52 170.171 1022.53 169.451 1021.25C168.751 1019.95 168.401 1018.45 168.401 1016.75C168.401 1015.07 168.761 1013.59 169.481 1012.31C170.221 1011.01 171.221 1010.02 172.481 1009.34C173.741 1008.64 175.151 1008.29 176.711 1008.29C178.271 1008.29 179.681 1008.64 180.941 1009.34C182.201 1010.02 183.191 1011 183.911 1012.28C184.651 1013.56 185.021 1015.05 185.021 1016.75C185.021 1018.45 184.641 1019.95 183.881 1021.25C183.141 1022.53 182.131 1023.52 180.851 1024.22C179.571 1024.92 178.151 1025.27 176.591 1025.27ZM176.591 1022.87C177.571 1022.87 178.491 1022.64 179.351 1022.18C180.211 1021.72 180.901 1021.03 181.421 1020.11C181.961 1019.19 182.231 1018.07 182.231 1016.75C182.231 1015.43 181.971 1014.31 181.451 1013.39C180.931 1012.47 180.251 1011.79 179.411 1011.35C178.571 1010.89 177.661 1010.66 176.681 1010.66C175.681 1010.66 174.761 1010.89 173.921 1011.35C173.101 1011.79 172.441 1012.47 171.941 1013.39C171.441 1014.31 171.191 1015.43 171.191 1016.75C171.191 1018.09 171.431 1019.22 171.911 1020.14C172.411 1021.06 173.071 1021.75 173.891 1022.21C174.711 1022.65 175.611 1022.87 176.591 1022.87ZM196.621 1008.26C198.621 1008.26 200.241 1008.87 201.481 1010.09C202.721 1011.29 203.341 1013.03 203.341 1015.31V1025H200.641V1015.7C200.641 1014.06 200.231 1012.81 199.411 1011.95C198.591 1011.07 197.471 1010.63 196.051 1010.63C194.611 1010.63 193.461 1011.08 192.601 1011.98C191.761 1012.88 191.341 1014.19 191.341 1015.91V1025H188.611V1008.56H191.341V1010.9C191.881 1010.06 192.611 1009.41 193.531 1008.95C194.471 1008.49 195.501 1008.26 196.621 1008.26ZM219.128 1010.81V1020.5C219.128 1021.3 219.298 1021.87 219.638 1022.21C219.978 1022.53 220.568 1022.69 221.408 1022.69H223.418V1025H220.958C219.438 1025 218.298 1024.65 217.538 1023.95C216.778 1023.25 216.398 1022.1 216.398 1020.5V1010.81H214.268V1008.56H216.398V1004.42H219.128V1008.56H223.418V1010.81H219.128ZM234.886 1008.26C236.126 1008.26 237.246 1008.53 238.246 1009.07C239.246 1009.59 240.026 1010.38 240.586 1011.44C241.166 1012.5 241.456 1013.79 241.456 1015.31V1025H238.756V1015.7C238.756 1014.06 238.346 1012.81 237.526 1011.95C236.706 1011.07 235.586 1010.63 234.166 1010.63C232.726 1010.63 231.576 1011.08 230.716 1011.98C229.876 1012.88 229.456 1014.19 229.456 1015.91V1025H226.726V1002.8H229.456V1010.9C229.996 1010.06 230.736 1009.41 231.676 1008.95C232.636 1008.49 233.706 1008.26 234.886 1008.26ZM260.915 1016.15C260.915 1016.67 260.885 1017.22 260.825 1017.8H247.685C247.785 1019.42 248.335 1020.69 249.335 1021.61C250.355 1022.51 251.585 1022.96 253.025 1022.96C254.205 1022.96 255.185 1022.69 255.965 1022.15C256.765 1021.59 257.325 1020.85 257.645 1019.93H260.585C260.145 1021.51 259.265 1022.8 257.945 1023.8C256.625 1024.78 254.985 1025.27 253.025 1025.27C251.465 1025.27 250.065 1024.92 248.825 1024.22C247.605 1023.52 246.645 1022.53 245.945 1021.25C245.245 1019.95 244.895 1018.45 244.895 1016.75C244.895 1015.05 245.235 1013.56 245.915 1012.28C246.595 1011 247.545 1010.02 248.765 1009.34C250.005 1008.64 251.425 1008.29 253.025 1008.29C254.585 1008.29 255.965 1008.63 257.165 1009.31C258.365 1009.99 259.285 1010.93 259.925 1012.13C260.585 1013.31 260.915 1014.65 260.915 1016.15ZM258.095 1015.58C258.095 1014.54 257.865 1013.65 257.405 1012.91C256.945 1012.15 256.315 1011.58 255.515 1011.2C254.735 1010.8 253.865 1010.6 252.905 1010.6C251.525 1010.6 250.345 1011.04 249.365 1011.92C248.405 1012.8 247.855 1014.02 247.715 1015.58H258.095ZM278.337 1025.27C277.077 1025.27 275.947 1025.06 274.947 1024.64C273.947 1024.2 273.157 1023.6 272.577 1022.84C271.997 1022.06 271.677 1021.17 271.617 1020.17H274.437C274.517 1020.99 274.897 1021.66 275.577 1022.18C276.277 1022.7 277.187 1022.96 278.307 1022.96C279.347 1022.96 280.167 1022.73 280.767 1022.27C281.367 1021.81 281.667 1021.23 281.667 1020.53C281.667 1019.81 281.347 1019.28 280.707 1018.94C280.067 1018.58 279.077 1018.23 277.737 1017.89C276.517 1017.57 275.517 1017.25 274.737 1016.93C273.977 1016.59 273.317 1016.1 272.757 1015.46C272.217 1014.8 271.947 1013.94 271.947 1012.88C271.947 1012.04 272.197 1011.27 272.697 1010.57C273.197 1009.87 273.907 1009.32 274.827 1008.92C275.747 1008.5 276.797 1008.29 277.977 1008.29C279.797 1008.29 281.267 1008.75 282.387 1009.67C283.507 1010.59 284.107 1011.85 284.187 1013.45H281.457C281.397 1012.59 281.047 1011.9 280.407 1011.38C279.787 1010.86 278.947 1010.6 277.887 1010.6C276.907 1010.6 276.127 1010.81 275.547 1011.23C274.967 1011.65 274.677 1012.2 274.677 1012.88C274.677 1013.42 274.847 1013.87 275.187 1014.23C275.547 1014.57 275.987 1014.85 276.507 1015.07C277.047 1015.27 277.787 1015.5 278.727 1015.76C279.907 1016.08 280.867 1016.4 281.607 1016.72C282.347 1017.02 282.977 1017.48 283.497 1018.1C284.037 1018.72 284.317 1019.53 284.337 1020.53C284.337 1021.43 284.087 1022.24 283.587 1022.96C283.087 1023.68 282.377 1024.25 281.457 1024.67C280.557 1025.07 279.517 1025.27 278.337 1025.27ZM291.521 1010.81V1020.5C291.521 1021.3 291.691 1021.87 292.031 1022.21C292.371 1022.53 292.961 1022.69 293.801 1022.69H295.811V1025H293.351C291.831 1025 290.691 1024.65 289.931 1023.95C289.171 1023.25 288.791 1022.1 288.791 1020.5V1010.81H286.661V1008.56H288.791V1004.42H291.521V1008.56H295.811V1010.81H291.521ZM298.099 1016.72C298.099 1015.04 298.439 1013.57 299.119 1012.31C299.799 1011.03 300.729 1010.04 301.909 1009.34C303.109 1008.64 304.439 1008.29 305.899 1008.29C307.339 1008.29 308.589 1008.6 309.649 1009.22C310.709 1009.84 311.499 1010.62 312.019 1011.56V1008.56H314.779V1025H312.019V1021.94C311.479 1022.9 310.669 1023.7 309.589 1024.34C308.529 1024.96 307.289 1025.27 305.869 1025.27C304.409 1025.27 303.089 1024.91 301.909 1024.19C300.729 1023.47 299.799 1022.46 299.119 1021.16C298.439 1019.86 298.099 1018.38 298.099 1016.72ZM312.019 1016.75C312.019 1015.51 311.769 1014.43 311.269 1013.51C310.769 1012.59 310.089 1011.89 309.229 1011.41C308.389 1010.91 307.459 1010.66 306.439 1010.66C305.419 1010.66 304.489 1010.9 303.649 1011.38C302.809 1011.86 302.139 1012.56 301.639 1013.48C301.139 1014.4 300.889 1015.48 300.889 1016.72C300.889 1017.98 301.139 1019.08 301.639 1020.02C302.139 1020.94 302.809 1021.65 303.649 1022.15C304.489 1022.63 305.419 1022.87 306.439 1022.87C307.459 1022.87 308.389 1022.63 309.229 1022.15C310.089 1021.65 310.769 1020.94 311.269 1020.02C311.769 1019.08 312.019 1017.99 312.019 1016.75ZM322.122 1011.23C322.602 1010.29 323.282 1009.56 324.162 1009.04C325.062 1008.52 326.152 1008.26 327.432 1008.26V1011.08H326.712C323.652 1011.08 322.122 1012.74 322.122 1016.06V1025H319.392V1008.56H322.122V1011.23ZM336.403 1025.27C335.143 1025.27 334.013 1025.06 333.013 1024.64C332.013 1024.2 331.223 1023.6 330.643 1022.84C330.063 1022.06 329.743 1021.17 329.683 1020.17H332.503C332.583 1020.99 332.963 1021.66 333.643 1022.18C334.343 1022.7 335.253 1022.96 336.373 1022.96C337.413 1022.96 338.233 1022.73 338.833 1022.27C339.433 1021.81 339.733 1021.23 339.733 1020.53C339.733 1019.81 339.413 1019.28 338.773 1018.94C338.133 1018.58 337.143 1018.23 335.803 1017.89C334.583 1017.57 333.583 1017.25 332.803 1016.93C332.043 1016.59 331.383 1016.1 330.823 1015.46C330.283 1014.8 330.013 1013.94 330.013 1012.88C330.013 1012.04 330.263 1011.27 330.763 1010.57C331.263 1009.87 331.973 1009.32 332.893 1008.92C333.813 1008.5 334.863 1008.29 336.043 1008.29C337.863 1008.29 339.333 1008.75 340.453 1009.67C341.573 1010.59 342.173 1011.85 342.253 1013.45H339.523C339.463 1012.59 339.113 1011.9 338.473 1011.38C337.853 1010.86 337.013 1010.6 335.953 1010.6C334.973 1010.6 334.193 1010.81 333.613 1011.23C333.033 1011.65 332.743 1012.2 332.743 1012.88C332.743 1013.42 332.913 1013.87 333.253 1014.23C333.613 1014.57 334.053 1014.85 334.573 1015.07C335.113 1015.27 335.853 1015.5 336.793 1015.76C337.973 1016.08 338.933 1016.4 339.673 1016.72C340.413 1017.02 341.043 1017.48 341.563 1018.1C342.103 1018.72 342.383 1019.53 342.403 1020.53C342.403 1021.43 342.153 1022.24 341.653 1022.96C341.153 1023.68 340.443 1024.25 339.523 1024.67C338.623 1025.07 337.583 1025.27 336.403 1025.27ZM355.557 1004.9L356.637 1006.85L352.467 1008.59L356.667 1010.3L355.527 1012.31L351.897 1009.67L352.377 1014.2H350.127L350.577 1009.67L346.947 1012.34L345.777 1010.3L349.947 1008.56L345.777 1006.88L346.887 1004.87L350.607 1007.54L350.127 1002.98H352.407L351.897 1007.54L355.557 1004.9Z" fill="#F9BAD1"/>
<path d="M555.701 832.27C554.341 832.27 553.121 832.03 552.041 831.55C550.961 831.05 550.101 830.38 549.461 829.54C548.841 828.7 548.501 827.77 548.441 826.75H552.671C552.751 827.39 553.061 827.92 553.601 828.34C554.161 828.76 554.851 828.97 555.671 828.97C556.471 828.97 557.091 828.81 557.531 828.49C557.991 828.17 558.221 827.76 558.221 827.26C558.221 826.72 557.941 826.32 557.381 826.06C556.841 825.78 555.971 825.48 554.771 825.16C553.531 824.86 552.511 824.55 551.711 824.23C550.931 823.91 550.251 823.42 549.671 822.76C549.111 822.1 548.831 821.21 548.831 820.09C548.831 819.17 549.091 818.33 549.611 817.57C550.151 816.81 550.911 816.21 551.891 815.77C552.891 815.33 554.061 815.11 555.401 815.11C557.381 815.11 558.961 815.61 560.141 816.61C561.321 817.59 561.971 818.92 562.091 820.6H558.071C558.011 819.94 557.731 819.42 557.231 819.04C556.751 818.64 556.101 818.44 555.281 818.44C554.521 818.44 553.931 818.58 553.511 818.86C553.111 819.14 552.911 819.53 552.911 820.03C552.911 820.59 553.191 821.02 553.751 821.32C554.311 821.6 555.181 821.89 556.361 822.19C557.561 822.49 558.551 822.8 559.331 823.12C560.111 823.44 560.781 823.94 561.341 824.62C561.921 825.28 562.221 826.16 562.241 827.26C562.241 828.22 561.971 829.08 561.431 829.84C560.911 830.6 560.151 831.2 559.151 831.64C558.171 832.06 557.021 832.27 555.701 832.27ZM570.579 818.83V826.87C570.579 827.43 570.709 827.84 570.969 828.1C571.249 828.34 571.709 828.46 572.349 828.46H574.299V832H571.659C568.119 832 566.349 830.28 566.349 826.84V818.83H564.369V815.38H566.349V811.27H570.579V815.38H574.299V818.83H570.579ZM576.24 823.63C576.24 821.95 576.57 820.46 577.23 819.16C577.91 817.86 578.82 816.86 579.96 816.16C581.12 815.46 582.41 815.11 583.83 815.11C585.07 815.11 586.15 815.36 587.07 815.86C588.01 816.36 588.76 816.99 589.32 817.75V815.38H593.55V832H589.32V829.57C588.78 830.35 588.03 831 587.07 831.52C586.13 832.02 585.04 832.27 583.8 832.27C582.4 832.27 581.12 831.91 579.96 831.19C578.82 830.47 577.91 829.46 577.23 828.16C576.57 826.84 576.24 825.33 576.24 823.63ZM589.32 823.69C589.32 822.67 589.12 821.8 588.72 821.08C588.32 820.34 587.78 819.78 587.1 819.4C586.42 819 585.69 818.8 584.91 818.8C584.13 818.8 583.41 818.99 582.75 819.37C582.09 819.75 581.55 820.31 581.13 821.05C580.73 821.77 580.53 822.63 580.53 823.63C580.53 824.63 580.73 825.51 581.13 826.27C581.55 827.01 582.09 827.58 582.75 827.98C583.43 828.38 584.15 828.58 584.91 828.58C585.69 828.58 586.42 828.39 587.1 828.01C587.78 827.61 588.32 827.05 588.72 826.33C589.12 825.59 589.32 824.71 589.32 823.69ZM601.852 817.96C602.392 817.08 603.092 816.39 603.952 815.89C604.832 815.39 605.832 815.14 606.952 815.14V819.55H605.842C604.522 819.55 603.522 819.86 602.842 820.48C602.182 821.1 601.852 822.18 601.852 823.72V832H597.652V815.38H601.852V817.96ZM623.289 832.27C621.929 832.27 620.709 832.03 619.629 831.55C618.549 831.05 617.689 830.38 617.049 829.54C616.429 828.7 616.089 827.77 616.029 826.75H620.259C620.339 827.39 620.649 827.92 621.189 828.34C621.749 828.76 622.439 828.97 623.259 828.97C624.059 828.97 624.679 828.81 625.119 828.49C625.579 828.17 625.809 827.76 625.809 827.26C625.809 826.72 625.529 826.32 624.969 826.06C624.429 825.78 623.559 825.48 622.359 825.16C621.119 824.86 620.099 824.55 619.299 824.23C618.519 823.91 617.839 823.42 617.259 822.76C616.699 822.1 616.419 821.21 616.419 820.09C616.419 819.17 616.679 818.33 617.199 817.57C617.739 816.81 618.499 816.21 619.479 815.77C620.479 815.33 621.649 815.11 622.989 815.11C624.969 815.11 626.549 815.61 627.729 816.61C628.909 817.59 629.559 818.92 629.679 820.6H625.659C625.599 819.94 625.319 819.42 624.819 819.04C624.339 818.64 623.689 818.44 622.869 818.44C622.109 818.44 621.519 818.58 621.099 818.86C620.699 819.14 620.499 819.53 620.499 820.03C620.499 820.59 620.779 821.02 621.339 821.32C621.899 821.6 622.769 821.89 623.949 822.19C625.149 822.49 626.139 822.8 626.919 823.12C627.699 823.44 628.369 823.94 628.929 824.62C629.509 825.28 629.809 826.16 629.829 827.26C629.829 828.22 629.559 829.08 629.019 829.84C628.499 830.6 627.739 831.2 626.739 831.64C625.759 832.06 624.609 832.27 623.289 832.27ZM643.117 832L637.477 824.92V832H633.277V809.8H637.477V822.43L643.057 815.38H648.517L641.197 823.72L648.577 832H643.117ZM652.927 813.4C652.187 813.4 651.567 813.17 651.067 812.71C650.587 812.23 650.347 811.64 650.347 810.94C650.347 810.24 650.587 809.66 651.067 809.2C651.567 808.72 652.187 808.48 652.927 808.48C653.667 808.48 654.277 808.72 654.757 809.2C655.257 809.66 655.507 810.24 655.507 810.94C655.507 811.64 655.257 812.23 654.757 812.71C654.277 813.17 653.667 813.4 652.927 813.4ZM654.997 815.38V832H650.797V815.38H654.997ZM663.346 809.8V832H659.146V809.8H663.346ZM671.696 809.8V832H667.496V809.8H671.696ZM682.205 832.27C680.845 832.27 679.625 832.03 678.545 831.55C677.465 831.05 676.605 830.38 675.965 829.54C675.345 828.7 675.005 827.77 674.945 826.75H679.175C679.255 827.39 679.565 827.92 680.105 828.34C680.665 828.76 681.355 828.97 682.175 828.97C682.975 828.97 683.595 828.81 684.035 828.49C684.495 828.17 684.725 827.76 684.725 827.26C684.725 826.72 684.445 826.32 683.885 826.06C683.345 825.78 682.475 825.48 681.275 825.16C680.035 824.86 679.015 824.55 678.215 824.23C677.435 823.91 676.755 823.42 676.175 822.76C675.615 822.1 675.335 821.21 675.335 820.09C675.335 819.17 675.595 818.33 676.115 817.57C676.655 816.81 677.415 816.21 678.395 815.77C679.395 815.33 680.565 815.11 681.905 815.11C683.885 815.11 685.465 815.61 686.645 816.61C687.825 817.59 688.475 818.92 688.595 820.6H684.575C684.515 819.94 684.235 819.42 683.735 819.04C683.255 818.64 682.605 818.44 681.785 818.44C681.025 818.44 680.435 818.58 680.015 818.86C679.615 819.14 679.415 819.53 679.415 820.03C679.415 820.59 679.695 821.02 680.255 821.32C680.815 821.6 681.685 821.89 682.865 822.19C684.065 822.49 685.055 822.8 685.835 823.12C686.615 823.44 687.285 823.94 687.845 824.62C688.425 825.28 688.725 826.16 688.745 827.26C688.745 828.22 688.475 829.08 687.935 829.84C687.415 830.6 686.655 831.2 685.655 831.64C684.675 832.06 683.525 832.27 682.205 832.27ZM697.623 810.7L697.143 825.19H693.603L693.093 810.7H697.623ZM695.463 832.21C694.703 832.21 694.073 831.98 693.573 831.52C693.093 831.04 692.853 830.45 692.853 829.75C692.853 829.05 693.093 828.47 693.573 828.01C694.073 827.53 694.703 827.29 695.463 827.29C696.203 827.29 696.813 827.53 697.293 828.01C697.773 828.47 698.013 829.05 698.013 829.75C698.013 830.45 697.773 831.04 697.293 831.52C696.813 831.98 696.203 832.21 695.463 832.21Z" fill="#F9BAD1"/>
<path d="M50.7015 632.27C49.3415 632.27 48.1215 632.03 47.0415 631.55C45.9615 631.05 45.1015 630.38 44.4615 629.54C43.8415 628.7 43.5015 627.77 43.4415 626.75H47.6715C47.7515 627.39 48.0615 627.92 48.6015 628.34C49.1615 628.76 49.8515 628.97 50.6715 628.97C51.4715 628.97 52.0915 628.81 52.5315 628.49C52.9915 628.17 53.2215 627.76 53.2215 627.26C53.2215 626.72 52.9415 626.32 52.3815 626.06C51.8415 625.78 50.9715 625.48 49.7715 625.16C48.5315 624.86 47.5115 624.55 46.7115 624.23C45.9315 623.91 45.2515 623.42 44.6715 622.76C44.1115 622.1 43.8315 621.21 43.8315 620.09C43.8315 619.17 44.0915 618.33 44.6115 617.57C45.1515 616.81 45.9115 616.21 46.8915 615.77C47.8915 615.33 49.0615 615.11 50.4015 615.11C52.3815 615.11 53.9615 615.61 55.1415 616.61C56.3215 617.59 56.9715 618.92 57.0915 620.6H53.0715C53.0115 619.94 52.7315 619.42 52.2315 619.04C51.7515 618.64 51.1015 618.44 50.2815 618.44C49.5215 618.44 48.9315 618.58 48.5115 618.86C48.1115 619.14 47.9115 619.53 47.9115 620.03C47.9115 620.59 48.1915 621.02 48.7515 621.32C49.3115 621.6 50.1815 621.89 51.3615 622.19C52.5615 622.49 53.5515 622.8 54.3315 623.12C55.1115 623.44 55.7815 623.94 56.3415 624.62C56.9215 625.28 57.2215 626.16 57.2415 627.26C57.2415 628.22 56.9715 629.08 56.4315 629.84C55.9115 630.6 55.1515 631.2 54.1515 631.64C53.1715 632.06 52.0215 632.27 50.7015 632.27ZM65.5791 618.83V626.87C65.5791 627.43 65.7091 627.84 65.9691 628.1C66.2491 628.34 66.7091 628.46 67.3491 628.46H69.2991V632H66.6591C63.1191 632 61.3491 630.28 61.3491 626.84V618.83H59.3691V615.38H61.3491V611.27H65.5791V615.38H69.2991V618.83H65.5791ZM71.24 623.63C71.24 621.95 71.57 620.46 72.23 619.16C72.91 617.86 73.82 616.86 74.96 616.16C76.12 615.46 77.41 615.11 78.83 615.11C80.07 615.11 81.15 615.36 82.07 615.86C83.01 616.36 83.76 616.99 84.32 617.75V615.38H88.55V632H84.32V629.57C83.78 630.35 83.03 631 82.07 631.52C81.13 632.02 80.04 632.27 78.8 632.27C77.4 632.27 76.12 631.91 74.96 631.19C73.82 630.47 72.91 629.46 72.23 628.16C71.57 626.84 71.24 625.33 71.24 623.63ZM84.32 623.69C84.32 622.67 84.12 621.8 83.72 621.08C83.32 620.34 82.78 619.78 82.1 619.4C81.42 619 80.69 618.8 79.91 618.8C79.13 618.8 78.41 618.99 77.75 619.37C77.09 619.75 76.55 620.31 76.13 621.05C75.73 621.77 75.53 622.63 75.53 623.63C75.53 624.63 75.73 625.51 76.13 626.27C76.55 627.01 77.09 627.58 77.75 627.98C78.43 628.38 79.15 628.58 79.91 628.58C80.69 628.58 81.42 628.39 82.1 628.01C82.78 627.61 83.32 627.05 83.72 626.33C84.12 625.59 84.32 624.71 84.32 623.69ZM96.852 617.96C97.392 617.08 98.092 616.39 98.952 615.89C99.832 615.39 100.832 615.14 101.952 615.14V619.55H100.842C99.522 619.55 98.522 619.86 97.842 620.48C97.182 621.1 96.852 622.18 96.852 623.72V632H92.652V615.38H96.852V617.96ZM118.289 632.27C116.929 632.27 115.709 632.03 114.629 631.55C113.549 631.05 112.689 630.38 112.049 629.54C111.429 628.7 111.089 627.77 111.029 626.75H115.259C115.339 627.39 115.649 627.92 116.189 628.34C116.749 628.76 117.439 628.97 118.259 628.97C119.059 628.97 119.679 628.81 120.119 628.49C120.579 628.17 120.809 627.76 120.809 627.26C120.809 626.72 120.529 626.32 119.969 626.06C119.429 625.78 118.559 625.48 117.359 625.16C116.119 624.86 115.099 624.55 114.299 624.23C113.519 623.91 112.839 623.42 112.259 622.76C111.699 622.1 111.419 621.21 111.419 620.09C111.419 619.17 111.679 618.33 112.199 617.57C112.739 616.81 113.499 616.21 114.479 615.77C115.479 615.33 116.649 615.11 117.989 615.11C119.969 615.11 121.549 615.61 122.729 616.61C123.909 617.59 124.559 618.92 124.679 620.6H120.659C120.599 619.94 120.319 619.42 119.819 619.04C119.339 618.64 118.689 618.44 117.869 618.44C117.109 618.44 116.519 618.58 116.099 618.86C115.699 619.14 115.499 619.53 115.499 620.03C115.499 620.59 115.779 621.02 116.339 621.32C116.899 621.6 117.769 621.89 118.949 622.19C120.149 622.49 121.139 622.8 121.919 623.12C122.699 623.44 123.369 623.94 123.929 624.62C124.509 625.28 124.809 626.16 124.829 627.26C124.829 628.22 124.559 629.08 124.019 629.84C123.499 630.6 122.739 631.2 121.739 631.64C120.759 632.06 119.609 632.27 118.289 632.27ZM138.117 632L132.477 624.92V632H128.277V609.8H132.477V622.43L138.057 615.38H143.517L136.197 623.72L143.577 632H138.117ZM147.927 613.4C147.187 613.4 146.567 613.17 146.067 612.71C145.587 612.23 145.347 611.64 145.347 610.94C145.347 610.24 145.587 609.66 146.067 609.2C146.567 608.72 147.187 608.48 147.927 608.48C148.667 608.48 149.277 608.72 149.757 609.2C150.257 609.66 150.507 610.24 150.507 610.94C150.507 611.64 150.257 612.23 149.757 612.71C149.277 613.17 148.667 613.4 147.927 613.4ZM149.997 615.38V632H145.797V615.38H149.997ZM158.346 609.8V632H154.146V609.8H158.346ZM166.696 609.8V632H162.496V609.8H166.696ZM177.205 632.27C175.845 632.27 174.625 632.03 173.545 631.55C172.465 631.05 171.605 630.38 170.965 629.54C170.345 628.7 170.005 627.77 169.945 626.75H174.175C174.255 627.39 174.565 627.92 175.105 628.34C175.665 628.76 176.355 628.97 177.175 628.97C177.975 628.97 178.595 628.81 179.035 628.49C179.495 628.17 179.725 627.76 179.725 627.26C179.725 626.72 179.445 626.32 178.885 626.06C178.345 625.78 177.475 625.48 176.275 625.16C175.035 624.86 174.015 624.55 173.215 624.23C172.435 623.91 171.755 623.42 171.175 622.76C170.615 622.1 170.335 621.21 170.335 620.09C170.335 619.17 170.595 618.33 171.115 617.57C171.655 616.81 172.415 616.21 173.395 615.77C174.395 615.33 175.565 615.11 176.905 615.11C178.885 615.11 180.465 615.61 181.645 616.61C182.825 617.59 183.475 618.92 183.595 620.6H179.575C179.515 619.94 179.235 619.42 178.735 619.04C178.255 618.64 177.605 618.44 176.785 618.44C176.025 618.44 175.435 618.58 175.015 618.86C174.615 619.14 174.415 619.53 174.415 620.03C174.415 620.59 174.695 621.02 175.255 621.32C175.815 621.6 176.685 621.89 177.865 622.19C179.065 622.49 180.055 622.8 180.835 623.12C181.615 623.44 182.285 623.94 182.845 624.62C183.425 625.28 183.725 626.16 183.745 627.26C183.745 628.22 183.475 629.08 182.935 629.84C182.415 630.6 181.655 631.2 180.655 631.64C179.675 632.06 178.525 632.27 177.205 632.27ZM192.623 610.7L192.143 625.19H188.603L188.093 610.7H192.623ZM190.463 632.21C189.703 632.21 189.073 631.98 188.573 631.52C188.093 631.04 187.853 630.45 187.853 629.75C187.853 629.05 188.093 628.47 188.573 628.01C189.073 627.53 189.703 627.29 190.463 627.29C191.203 627.29 191.813 627.53 192.293 628.01C192.773 628.47 193.013 629.05 193.013 629.75C193.013 630.45 192.773 631.04 192.293 631.52C191.813 631.98 191.203 632.21 190.463 632.21Z" fill="#F9BAD1"/>
<path d="M1347.7 33.27C1346.34 33.27 1345.12 33.03 1344.04 32.55C1342.96 32.05 1342.1 31.38 1341.46 30.54C1340.84 29.7 1340.5 28.77 1340.44 27.75H1344.67C1344.75 28.39 1345.06 28.92 1345.6 29.34C1346.16 29.76 1346.85 29.97 1347.67 29.97C1348.47 29.97 1349.09 29.81 1349.53 29.49C1349.99 29.17 1350.22 28.76 1350.22 28.26C1350.22 27.72 1349.94 27.32 1349.38 27.06C1348.84 26.78 1347.97 26.48 1346.77 26.16C1345.53 25.86 1344.51 25.55 1343.71 25.23C1342.93 24.91 1342.25 24.42 1341.67 23.76C1341.11 23.1 1340.83 22.21 1340.83 21.09C1340.83 20.17 1341.09 19.33 1341.61 18.57C1342.15 17.81 1342.91 17.21 1343.89 16.77C1344.89 16.33 1346.06 16.11 1347.4 16.11C1349.38 16.11 1350.96 16.61 1352.14 17.61C1353.32 18.59 1353.97 19.92 1354.09 21.6H1350.07C1350.01 20.94 1349.73 20.42 1349.23 20.04C1348.75 19.64 1348.1 19.44 1347.28 19.44C1346.52 19.44 1345.93 19.58 1345.51 19.86C1345.11 20.14 1344.91 20.53 1344.91 21.03C1344.91 21.59 1345.19 22.02 1345.75 22.32C1346.31 22.6 1347.18 22.89 1348.36 23.19C1349.56 23.49 1350.55 23.8 1351.33 24.12C1352.11 24.44 1352.78 24.94 1353.34 25.62C1353.92 26.28 1354.22 27.16 1354.24 28.26C1354.24 29.22 1353.97 30.08 1353.43 30.84C1352.91 31.6 1352.15 32.2 1351.15 32.64C1350.17 33.06 1349.02 33.27 1347.7 33.27ZM1362.58 19.83V27.87C1362.58 28.43 1362.71 28.84 1362.97 29.1C1363.25 29.34 1363.71 29.46 1364.35 29.46H1366.3V33H1363.66C1360.12 33 1358.35 31.28 1358.35 27.84V19.83H1356.37V16.38H1358.35V12.27H1362.58V16.38H1366.3V19.83H1362.58ZM1368.24 24.63C1368.24 22.95 1368.57 21.46 1369.23 20.16C1369.91 18.86 1370.82 17.86 1371.96 17.16C1373.12 16.46 1374.41 16.11 1375.83 16.11C1377.07 16.11 1378.15 16.36 1379.07 16.86C1380.01 17.36 1380.76 17.99 1381.32 18.75V16.38H1385.55V33H1381.32V30.57C1380.78 31.35 1380.03 32 1379.07 32.52C1378.13 33.02 1377.04 33.27 1375.8 33.27C1374.4 33.27 1373.12 32.91 1371.96 32.19C1370.82 31.47 1369.91 30.46 1369.23 29.16C1368.57 27.84 1368.24 26.33 1368.24 24.63ZM1381.32 24.69C1381.32 23.67 1381.12 22.8 1380.72 22.08C1380.32 21.34 1379.78 20.78 1379.1 20.4C1378.42 20 1377.69 19.8 1376.91 19.8C1376.13 19.8 1375.41 19.99 1374.75 20.37C1374.09 20.75 1373.55 21.31 1373.13 22.05C1372.73 22.77 1372.53 23.63 1372.53 24.63C1372.53 25.63 1372.73 26.51 1373.13 27.27C1373.55 28.01 1374.09 28.58 1374.75 28.98C1375.43 29.38 1376.15 29.58 1376.91 29.58C1377.69 29.58 1378.42 29.39 1379.1 29.01C1379.78 28.61 1380.32 28.05 1380.72 27.33C1381.12 26.59 1381.32 25.71 1381.32 24.69ZM1393.85 18.96C1394.39 18.08 1395.09 17.39 1395.95 16.89C1396.83 16.39 1397.83 16.14 1398.95 16.14V20.55H1397.84C1396.52 20.55 1395.52 20.86 1394.84 21.48C1394.18 22.1 1393.85 23.18 1393.85 24.72V33H1389.65V16.38H1393.85V18.96ZM1415.29 33.27C1413.93 33.27 1412.71 33.03 1411.63 32.55C1410.55 32.05 1409.69 31.38 1409.05 30.54C1408.43 29.7 1408.09 28.77 1408.03 27.75H1412.26C1412.34 28.39 1412.65 28.92 1413.19 29.34C1413.75 29.76 1414.44 29.97 1415.26 29.97C1416.06 29.97 1416.68 29.81 1417.12 29.49C1417.58 29.17 1417.81 28.76 1417.81 28.26C1417.81 27.72 1417.53 27.32 1416.97 27.06C1416.43 26.78 1415.56 26.48 1414.36 26.16C1413.12 25.86 1412.1 25.55 1411.3 25.23C1410.52 24.91 1409.84 24.42 1409.26 23.76C1408.7 23.1 1408.42 22.21 1408.42 21.09C1408.42 20.17 1408.68 19.33 1409.2 18.57C1409.74 17.81 1410.5 17.21 1411.48 16.77C1412.48 16.33 1413.65 16.11 1414.99 16.11C1416.97 16.11 1418.55 16.61 1419.73 17.61C1420.91 18.59 1421.56 19.92 1421.68 21.6H1417.66C1417.6 20.94 1417.32 20.42 1416.82 20.04C1416.34 19.64 1415.69 19.44 1414.87 19.44C1414.11 19.44 1413.52 19.58 1413.1 19.86C1412.7 20.14 1412.5 20.53 1412.5 21.03C1412.5 21.59 1412.78 22.02 1413.34 22.32C1413.9 22.6 1414.77 22.89 1415.95 23.19C1417.15 23.49 1418.14 23.8 1418.92 24.12C1419.7 24.44 1420.37 24.94 1420.93 25.62C1421.51 26.28 1421.81 27.16 1421.83 28.26C1421.83 29.22 1421.56 30.08 1421.02 30.84C1420.5 31.6 1419.74 32.2 1418.74 32.64C1417.76 33.06 1416.61 33.27 1415.29 33.27ZM1435.12 33L1429.48 25.92V33H1425.28V10.8H1429.48V23.43L1435.06 16.38H1440.52L1433.2 24.72L1440.58 33H1435.12ZM1444.93 14.4C1444.19 14.4 1443.57 14.17 1443.07 13.71C1442.59 13.23 1442.35 12.64 1442.35 11.94C1442.35 11.24 1442.59 10.66 1443.07 10.2C1443.57 9.72 1444.19 9.48 1444.93 9.48C1445.67 9.48 1446.28 9.72 1446.76 10.2C1447.26 10.66 1447.51 11.24 1447.51 11.94C1447.51 12.64 1447.26 13.23 1446.76 13.71C1446.28 14.17 1445.67 14.4 1444.93 14.4ZM1447 16.38V33H1442.8V16.38H1447ZM1455.35 10.8V33H1451.15V10.8H1455.35ZM1463.7 10.8V33H1459.5V10.8H1463.7ZM1474.21 33.27C1472.85 33.27 1471.63 33.03 1470.55 32.55C1469.47 32.05 1468.61 31.38 1467.97 30.54C1467.35 29.7 1467.01 28.77 1466.95 27.75H1471.18C1471.26 28.39 1471.57 28.92 1472.11 29.34C1472.67 29.76 1473.36 29.97 1474.18 29.97C1474.98 29.97 1475.6 29.81 1476.04 29.49C1476.5 29.17 1476.73 28.76 1476.73 28.26C1476.73 27.72 1476.45 27.32 1475.89 27.06C1475.35 26.78 1474.48 26.48 1473.28 26.16C1472.04 25.86 1471.02 25.55 1470.22 25.23C1469.44 24.91 1468.76 24.42 1468.18 23.76C1467.62 23.1 1467.34 22.21 1467.34 21.09C1467.34 20.17 1467.6 19.33 1468.12 18.57C1468.66 17.81 1469.42 17.21 1470.4 16.77C1471.4 16.33 1472.57 16.11 1473.91 16.11C1475.89 16.11 1477.47 16.61 1478.65 17.61C1479.83 18.59 1480.48 19.92 1480.6 21.6H1476.58C1476.52 20.94 1476.24 20.42 1475.74 20.04C1475.26 19.64 1474.61 19.44 1473.79 19.44C1473.03 19.44 1472.44 19.58 1472.02 19.86C1471.62 20.14 1471.42 20.53 1471.42 21.03C1471.42 21.59 1471.7 22.02 1472.26 22.32C1472.82 22.6 1473.69 22.89 1474.87 23.19C1476.07 23.49 1477.06 23.8 1477.84 24.12C1478.62 24.44 1479.29 24.94 1479.85 25.62C1480.43 26.28 1480.73 27.16 1480.75 28.26C1480.75 29.22 1480.48 30.08 1479.94 30.84C1479.42 31.6 1478.66 32.2 1477.66 32.64C1476.68 33.06 1475.53 33.27 1474.21 33.27ZM1489.62 11.7L1489.14 26.19H1485.6L1485.09 11.7H1489.62ZM1487.46 33.21C1486.7 33.21 1486.07 32.98 1485.57 32.52C1485.09 32.04 1484.85 31.45 1484.85 30.75C1484.85 30.05 1485.09 29.47 1485.57 29.01C1486.07 28.53 1486.7 28.29 1487.46 28.29C1488.2 28.29 1488.81 28.53 1489.29 29.01C1489.77 29.47 1490.01 30.05 1490.01 30.75C1490.01 31.45 1489.77 32.04 1489.29 32.52C1488.81 32.98 1488.2 33.21 1487.46 33.21Z" fill="#F9BAD1"/>
<path d="M906.701 599.27C905.341 599.27 904.121 599.03 903.041 598.55C901.961 598.05 901.101 597.38 900.461 596.54C899.841 595.7 899.501 594.77 899.441 593.75H903.671C903.751 594.39 904.061 594.92 904.601 595.34C905.161 595.76 905.851 595.97 906.671 595.97C907.471 595.97 908.091 595.81 908.531 595.49C908.991 595.17 909.221 594.76 909.221 594.26C909.221 593.72 908.941 593.32 908.381 593.06C907.841 592.78 906.971 592.48 905.771 592.16C904.531 591.86 903.511 591.55 902.711 591.23C901.931 590.91 901.251 590.42 900.671 589.76C900.111 589.1 899.831 588.21 899.831 587.09C899.831 586.17 900.091 585.33 900.611 584.57C901.151 583.81 901.911 583.21 902.891 582.77C903.891 582.33 905.061 582.11 906.401 582.11C908.381 582.11 909.961 582.61 911.141 583.61C912.321 584.59 912.971 585.92 913.091 587.6H909.071C909.011 586.94 908.731 586.42 908.231 586.04C907.751 585.64 907.101 585.44 906.281 585.44C905.521 585.44 904.931 585.58 904.511 585.86C904.111 586.14 903.911 586.53 903.911 587.03C903.911 587.59 904.191 588.02 904.751 588.32C905.311 588.6 906.181 588.89 907.361 589.19C908.561 589.49 909.551 589.8 910.331 590.12C911.111 590.44 911.781 590.94 912.341 591.62C912.921 592.28 913.221 593.16 913.241 594.26C913.241 595.22 912.971 596.08 912.431 596.84C911.911 597.6 911.151 598.2 910.151 598.64C909.171 599.06 908.021 599.27 906.701 599.27ZM921.579 585.83V593.87C921.579 594.43 921.709 594.84 921.969 595.1C922.249 595.34 922.709 595.46 923.349 595.46H925.299V599H922.659C919.119 599 917.349 597.28 917.349 593.84V585.83H915.369V582.38H917.349V578.27H921.579V582.38H925.299V585.83H921.579ZM927.24 590.63C927.24 588.95 927.57 587.46 928.23 586.16C928.91 584.86 929.82 583.86 930.96 583.16C932.12 582.46 933.41 582.11 934.83 582.11C936.07 582.11 937.15 582.36 938.07 582.86C939.01 583.36 939.76 583.99 940.32 584.75V582.38H944.55V599H940.32V596.57C939.78 597.35 939.03 598 938.07 598.52C937.13 599.02 936.04 599.27 934.8 599.27C933.4 599.27 932.12 598.91 930.96 598.19C929.82 597.47 928.91 596.46 928.23 595.16C927.57 593.84 927.24 592.33 927.24 590.63ZM940.32 590.69C940.32 589.67 940.12 588.8 939.72 588.08C939.32 587.34 938.78 586.78 938.1 586.4C937.42 586 936.69 585.8 935.91 585.8C935.13 585.8 934.41 585.99 933.75 586.37C933.09 586.75 932.55 587.31 932.13 588.05C931.73 588.77 931.53 589.63 931.53 590.63C931.53 591.63 931.73 592.51 932.13 593.27C932.55 594.01 933.09 594.58 933.75 594.98C934.43 595.38 935.15 595.58 935.91 595.58C936.69 595.58 937.42 595.39 938.1 595.01C938.78 594.61 939.32 594.05 939.72 593.33C940.12 592.59 940.32 591.71 940.32 590.69ZM952.852 584.96C953.392 584.08 954.092 583.39 954.952 582.89C955.832 582.39 956.832 582.14 957.952 582.14V586.55H956.842C955.522 586.55 954.522 586.86 953.842 587.48C953.182 588.1 952.852 589.18 952.852 590.72V599H948.652V582.38H952.852V584.96ZM974.289 599.27C972.929 599.27 971.709 599.03 970.629 598.55C969.549 598.05 968.689 597.38 968.049 596.54C967.429 595.7 967.089 594.77 967.029 593.75H971.259C971.339 594.39 971.649 594.92 972.189 595.34C972.749 595.76 973.439 595.97 974.259 595.97C975.059 595.97 975.679 595.81 976.119 595.49C976.579 595.17 976.809 594.76 976.809 594.26C976.809 593.72 976.529 593.32 975.969 593.06C975.429 592.78 974.559 592.48 973.359 592.16C972.119 591.86 971.099 591.55 970.299 591.23C969.519 590.91 968.839 590.42 968.259 589.76C967.699 589.1 967.419 588.21 967.419 587.09C967.419 586.17 967.679 585.33 968.199 584.57C968.739 583.81 969.499 583.21 970.479 582.77C971.479 582.33 972.649 582.11 973.989 582.11C975.969 582.11 977.549 582.61 978.729 583.61C979.909 584.59 980.559 585.92 980.679 587.6H976.659C976.599 586.94 976.319 586.42 975.819 586.04C975.339 585.64 974.689 585.44 973.869 585.44C973.109 585.44 972.519 585.58 972.099 585.86C971.699 586.14 971.499 586.53 971.499 587.03C971.499 587.59 971.779 588.02 972.339 588.32C972.899 588.6 973.769 588.89 974.949 589.19C976.149 589.49 977.139 589.8 977.919 590.12C978.699 590.44 979.369 590.94 979.929 591.62C980.509 592.28 980.809 593.16 980.829 594.26C980.829 595.22 980.559 596.08 980.019 596.84C979.499 597.6 978.739 598.2 977.739 598.64C976.759 599.06 975.609 599.27 974.289 599.27ZM994.117 599L988.477 591.92V599H984.277V576.8H988.477V589.43L994.057 582.38H999.517L992.197 590.72L999.577 599H994.117ZM1003.93 580.4C1003.19 580.4 1002.57 580.17 1002.07 579.71C1001.59 579.23 1001.35 578.64 1001.35 577.94C1001.35 577.24 1001.59 576.66 1002.07 576.2C1002.57 575.72 1003.19 575.48 1003.93 575.48C1004.67 575.48 1005.28 575.72 1005.76 576.2C1006.26 576.66 1006.51 577.24 1006.51 577.94C1006.51 578.64 1006.26 579.23 1005.76 579.71C1005.28 580.17 1004.67 580.4 1003.93 580.4ZM1006 582.38V599H1001.8V582.38H1006ZM1014.35 576.8V599H1010.15V576.8H1014.35ZM1022.7 576.8V599H1018.5V576.8H1022.7ZM1033.21 599.27C1031.85 599.27 1030.63 599.03 1029.55 598.55C1028.47 598.05 1027.61 597.38 1026.97 596.54C1026.35 595.7 1026.01 594.77 1025.95 593.75H1030.18C1030.26 594.39 1030.57 594.92 1031.11 595.34C1031.67 595.76 1032.36 595.97 1033.18 595.97C1033.98 595.97 1034.6 595.81 1035.04 595.49C1035.5 595.17 1035.73 594.76 1035.73 594.26C1035.73 593.72 1035.45 593.32 1034.89 593.06C1034.35 592.78 1033.48 592.48 1032.28 592.16C1031.04 591.86 1030.02 591.55 1029.22 591.23C1028.44 590.91 1027.76 590.42 1027.18 589.76C1026.62 589.1 1026.34 588.21 1026.34 587.09C1026.34 586.17 1026.6 585.33 1027.12 584.57C1027.66 583.81 1028.42 583.21 1029.4 582.77C1030.4 582.33 1031.57 582.11 1032.91 582.11C1034.89 582.11 1036.47 582.61 1037.65 583.61C1038.83 584.59 1039.48 585.92 1039.6 587.6H1035.58C1035.52 586.94 1035.24 586.42 1034.74 586.04C1034.26 585.64 1033.61 585.44 1032.79 585.44C1032.03 585.44 1031.44 585.58 1031.02 585.86C1030.62 586.14 1030.42 586.53 1030.42 587.03C1030.42 587.59 1030.7 588.02 1031.26 588.32C1031.82 588.6 1032.69 588.89 1033.87 589.19C1035.07 589.49 1036.06 589.8 1036.84 590.12C1037.62 590.44 1038.29 590.94 1038.85 591.62C1039.43 592.28 1039.73 593.16 1039.75 594.26C1039.75 595.22 1039.48 596.08 1038.94 596.84C1038.42 597.6 1037.66 598.2 1036.66 598.64C1035.68 599.06 1034.53 599.27 1033.21 599.27ZM1048.62 577.7L1048.14 592.19H1044.6L1044.09 577.7H1048.62ZM1046.46 599.21C1045.7 599.21 1045.07 598.98 1044.57 598.52C1044.09 598.04 1043.85 597.45 1043.85 596.75C1043.85 596.05 1044.09 595.47 1044.57 595.01C1045.07 594.53 1045.7 594.29 1046.46 594.29C1047.2 594.29 1047.81 594.53 1048.29 595.01C1048.77 595.47 1049.01 596.05 1049.01 596.75C1049.01 597.45 1048.77 598.04 1048.29 598.52C1047.81 598.98 1047.2 599.21 1046.46 599.21Z" fill="#F9BAD1"/>
<path d="M1623.7 916.27C1622.34 916.27 1621.12 916.03 1620.04 915.55C1618.96 915.05 1618.1 914.38 1617.46 913.54C1616.84 912.7 1616.5 911.77 1616.44 910.75H1620.67C1620.75 911.39 1621.06 911.92 1621.6 912.34C1622.16 912.76 1622.85 912.97 1623.67 912.97C1624.47 912.97 1625.09 912.81 1625.53 912.49C1625.99 912.17 1626.22 911.76 1626.22 911.26C1626.22 910.72 1625.94 910.32 1625.38 910.06C1624.84 909.78 1623.97 909.48 1622.77 909.16C1621.53 908.86 1620.51 908.55 1619.71 908.23C1618.93 907.91 1618.25 907.42 1617.67 906.76C1617.11 906.1 1616.83 905.21 1616.83 904.09C1616.83 903.17 1617.09 902.33 1617.61 901.57C1618.15 900.81 1618.91 900.21 1619.89 899.77C1620.89 899.33 1622.06 899.11 1623.4 899.11C1625.38 899.11 1626.96 899.61 1628.14 900.61C1629.32 901.59 1629.97 902.92 1630.09 904.6H1626.07C1626.01 903.94 1625.73 903.42 1625.23 903.04C1624.75 902.64 1624.1 902.44 1623.28 902.44C1622.52 902.44 1621.93 902.58 1621.51 902.86C1621.11 903.14 1620.91 903.53 1620.91 904.03C1620.91 904.59 1621.19 905.02 1621.75 905.32C1622.31 905.6 1623.18 905.89 1624.36 906.19C1625.56 906.49 1626.55 906.8 1627.33 907.12C1628.11 907.44 1628.78 907.94 1629.34 908.62C1629.92 909.28 1630.22 910.16 1630.24 911.26C1630.24 912.22 1629.97 913.08 1629.43 913.84C1628.91 914.6 1628.15 915.2 1627.15 915.64C1626.17 916.06 1625.02 916.27 1623.7 916.27ZM1638.58 902.83V910.87C1638.58 911.43 1638.71 911.84 1638.97 912.1C1639.25 912.34 1639.71 912.46 1640.35 912.46H1642.3V916H1639.66C1636.12 916 1634.35 914.28 1634.35 910.84V902.83H1632.37V899.38H1634.35V895.27H1638.58V899.38H1642.3V902.83H1638.58ZM1644.24 907.63C1644.24 905.95 1644.57 904.46 1645.23 903.16C1645.91 901.86 1646.82 900.86 1647.96 900.16C1649.12 899.46 1650.41 899.11 1651.83 899.11C1653.07 899.11 1654.15 899.36 1655.07 899.86C1656.01 900.36 1656.76 900.99 1657.32 901.75V899.38H1661.55V916H1657.32V913.57C1656.78 914.35 1656.03 915 1655.07 915.52C1654.13 916.02 1653.04 916.27 1651.8 916.27C1650.4 916.27 1649.12 915.91 1647.96 915.19C1646.82 914.47 1645.91 913.46 1645.23 912.16C1644.57 910.84 1644.24 909.33 1644.24 907.63ZM1657.32 907.69C1657.32 906.67 1657.12 905.8 1656.72 905.08C1656.32 904.34 1655.78 903.78 1655.1 903.4C1654.42 903 1653.69 902.8 1652.91 902.8C1652.13 902.8 1651.41 902.99 1650.75 903.37C1650.09 903.75 1649.55 904.31 1649.13 905.05C1648.73 905.77 1648.53 906.63 1648.53 907.63C1648.53 908.63 1648.73 909.51 1649.13 910.27C1649.55 911.01 1650.09 911.58 1650.75 911.98C1651.43 912.38 1652.15 912.58 1652.91 912.58C1653.69 912.58 1654.42 912.39 1655.1 912.01C1655.78 911.61 1656.32 911.05 1656.72 910.33C1657.12 909.59 1657.32 908.71 1657.32 907.69ZM1669.85 901.96C1670.39 901.08 1671.09 900.39 1671.95 899.89C1672.83 899.39 1673.83 899.14 1674.95 899.14V903.55H1673.84C1672.52 903.55 1671.52 903.86 1670.84 904.48C1670.18 905.1 1669.85 906.18 1669.85 907.72V916H1665.65V899.38H1669.85V901.96ZM1691.29 916.27C1689.93 916.27 1688.71 916.03 1687.63 915.55C1686.55 915.05 1685.69 914.38 1685.05 913.54C1684.43 912.7 1684.09 911.77 1684.03 910.75H1688.26C1688.34 911.39 1688.65 911.92 1689.19 912.34C1689.75 912.76 1690.44 912.97 1691.26 912.97C1692.06 912.97 1692.68 912.81 1693.12 912.49C1693.58 912.17 1693.81 911.76 1693.81 911.26C1693.81 910.72 1693.53 910.32 1692.97 910.06C1692.43 909.78 1691.56 909.48 1690.36 909.16C1689.12 908.86 1688.1 908.55 1687.3 908.23C1686.52 907.91 1685.84 907.42 1685.26 906.76C1684.7 906.1 1684.42 905.21 1684.42 904.09C1684.42 903.17 1684.68 902.33 1685.2 901.57C1685.74 900.81 1686.5 900.21 1687.48 899.77C1688.48 899.33 1689.65 899.11 1690.99 899.11C1692.97 899.11 1694.55 899.61 1695.73 900.61C1696.91 901.59 1697.56 902.92 1697.68 904.6H1693.66C1693.6 903.94 1693.32 903.42 1692.82 903.04C1692.34 902.64 1691.69 902.44 1690.87 902.44C1690.11 902.44 1689.52 902.58 1689.1 902.86C1688.7 903.14 1688.5 903.53 1688.5 904.03C1688.5 904.59 1688.78 905.02 1689.34 905.32C1689.9 905.6 1690.77 905.89 1691.95 906.19C1693.15 906.49 1694.14 906.8 1694.92 907.12C1695.7 907.44 1696.37 907.94 1696.93 908.62C1697.51 909.28 1697.81 910.16 1697.83 911.26C1697.83 912.22 1697.56 913.08 1697.02 913.84C1696.5 914.6 1695.74 915.2 1694.74 915.64C1693.76 916.06 1692.61 916.27 1691.29 916.27ZM1711.12 916L1705.48 908.92V916H1701.28V893.8H1705.48V906.43L1711.06 899.38H1716.52L1709.2 907.72L1716.58 916H1711.12ZM1720.93 897.4C1720.19 897.4 1719.57 897.17 1719.07 896.71C1718.59 896.23 1718.35 895.64 1718.35 894.94C1718.35 894.24 1718.59 893.66 1719.07 893.2C1719.57 892.72 1720.19 892.48 1720.93 892.48C1721.67 892.48 1722.28 892.72 1722.76 893.2C1723.26 893.66 1723.51 894.24 1723.51 894.94C1723.51 895.64 1723.26 896.23 1722.76 896.71C1722.28 897.17 1721.67 897.4 1720.93 897.4ZM1723 899.38V916H1718.8V899.38H1723ZM1731.35 893.8V916H1727.15V893.8H1731.35ZM1739.7 893.8V916H1735.5V893.8H1739.7ZM1750.21 916.27C1748.85 916.27 1747.63 916.03 1746.55 915.55C1745.47 915.05 1744.61 914.38 1743.97 913.54C1743.35 912.7 1743.01 911.77 1742.95 910.75H1747.18C1747.26 911.39 1747.57 911.92 1748.11 912.34C1748.67 912.76 1749.36 912.97 1750.18 912.97C1750.98 912.97 1751.6 912.81 1752.04 912.49C1752.5 912.17 1752.73 911.76 1752.73 911.26C1752.73 910.72 1752.45 910.32 1751.89 910.06C1751.35 909.78 1750.48 909.48 1749.28 909.16C1748.04 908.86 1747.02 908.55 1746.22 908.23C1745.44 907.91 1744.76 907.42 1744.18 906.76C1743.62 906.1 1743.34 905.21 1743.34 904.09C1743.34 903.17 1743.6 902.33 1744.12 901.57C1744.66 900.81 1745.42 900.21 1746.4 899.77C1747.4 899.33 1748.57 899.11 1749.91 899.11C1751.89 899.11 1753.47 899.61 1754.65 900.61C1755.83 901.59 1756.48 902.92 1756.6 904.6H1752.58C1752.52 903.94 1752.24 903.42 1751.74 903.04C1751.26 902.64 1750.61 902.44 1749.79 902.44C1749.03 902.44 1748.44 902.58 1748.02 902.86C1747.62 903.14 1747.42 903.53 1747.42 904.03C1747.42 904.59 1747.7 905.02 1748.26 905.32C1748.82 905.6 1749.69 905.89 1750.87 906.19C1752.07 906.49 1753.06 906.8 1753.84 907.12C1754.62 907.44 1755.29 907.94 1755.85 908.62C1756.43 909.28 1756.73 910.16 1756.75 911.26C1756.75 912.22 1756.48 913.08 1755.94 913.84C1755.42 914.6 1754.66 915.2 1753.66 915.64C1752.68 916.06 1751.53 916.27 1750.21 916.27ZM1765.62 894.7L1765.14 909.19H1761.6L1761.09 894.7H1765.62ZM1763.46 916.21C1762.7 916.21 1762.07 915.98 1761.57 915.52C1761.09 915.04 1760.85 914.45 1760.85 913.75C1760.85 913.05 1761.09 912.47 1761.57 912.01C1762.07 911.53 1762.7 911.29 1763.46 911.29C1764.2 911.29 1764.81 911.53 1765.29 912.01C1765.77 912.47 1766.01 913.05 1766.01 913.75C1766.01 914.45 1765.77 915.04 1765.29 915.52C1764.81 915.98 1764.2 916.21 1763.46 916.21Z" fill="#F9BAD1"/>
<path d="M1424.7 464.27C1423.34 464.27 1422.12 464.03 1421.04 463.55C1419.96 463.05 1419.1 462.38 1418.46 461.54C1417.84 460.7 1417.5 459.77 1417.44 458.75H1421.67C1421.75 459.39 1422.06 459.92 1422.6 460.34C1423.16 460.76 1423.85 460.97 1424.67 460.97C1425.47 460.97 1426.09 460.81 1426.53 460.49C1426.99 460.17 1427.22 459.76 1427.22 459.26C1427.22 458.72 1426.94 458.32 1426.38 458.06C1425.84 457.78 1424.97 457.48 1423.77 457.16C1422.53 456.86 1421.51 456.55 1420.71 456.23C1419.93 455.91 1419.25 455.42 1418.67 454.76C1418.11 454.1 1417.83 453.21 1417.83 452.09C1417.83 451.17 1418.09 450.33 1418.61 449.57C1419.15 448.81 1419.91 448.21 1420.89 447.77C1421.89 447.33 1423.06 447.11 1424.4 447.11C1426.38 447.11 1427.96 447.61 1429.14 448.61C1430.32 449.59 1430.97 450.92 1431.09 452.6H1427.07C1427.01 451.94 1426.73 451.42 1426.23 451.04C1425.75 450.64 1425.1 450.44 1424.28 450.44C1423.52 450.44 1422.93 450.58 1422.51 450.86C1422.11 451.14 1421.91 451.53 1421.91 452.03C1421.91 452.59 1422.19 453.02 1422.75 453.32C1423.31 453.6 1424.18 453.89 1425.36 454.19C1426.56 454.49 1427.55 454.8 1428.33 455.12C1429.11 455.44 1429.78 455.94 1430.34 456.62C1430.92 457.28 1431.22 458.16 1431.24 459.26C1431.24 460.22 1430.97 461.08 1430.43 461.84C1429.91 462.6 1429.15 463.2 1428.15 463.64C1427.17 464.06 1426.02 464.27 1424.7 464.27ZM1439.58 450.83V458.87C1439.58 459.43 1439.71 459.84 1439.97 460.1C1440.25 460.34 1440.71 460.46 1441.35 460.46H1443.3V464H1440.66C1437.12 464 1435.35 462.28 1435.35 458.84V450.83H1433.37V447.38H1435.35V443.27H1439.58V447.38H1443.3V450.83H1439.58ZM1445.24 455.63C1445.24 453.95 1445.57 452.46 1446.23 451.16C1446.91 449.86 1447.82 448.86 1448.96 448.16C1450.12 447.46 1451.41 447.11 1452.83 447.11C1454.07 447.11 1455.15 447.36 1456.07 447.86C1457.01 448.36 1457.76 448.99 1458.32 449.75V447.38H1462.55V464H1458.32V461.57C1457.78 462.35 1457.03 463 1456.07 463.52C1455.13 464.02 1454.04 464.27 1452.8 464.27C1451.4 464.27 1450.12 463.91 1448.96 463.19C1447.82 462.47 1446.91 461.46 1446.23 460.16C1445.57 458.84 1445.24 457.33 1445.24 455.63ZM1458.32 455.69C1458.32 454.67 1458.12 453.8 1457.72 453.08C1457.32 452.34 1456.78 451.78 1456.1 451.4C1455.42 451 1454.69 450.8 1453.91 450.8C1453.13 450.8 1452.41 450.99 1451.75 451.37C1451.09 451.75 1450.55 452.31 1450.13 453.05C1449.73 453.77 1449.53 454.63 1449.53 455.63C1449.53 456.63 1449.73 457.51 1450.13 458.27C1450.55 459.01 1451.09 459.58 1451.75 459.98C1452.43 460.38 1453.15 460.58 1453.91 460.58C1454.69 460.58 1455.42 460.39 1456.1 460.01C1456.78 459.61 1457.32 459.05 1457.72 458.33C1458.12 457.59 1458.32 456.71 1458.32 455.69ZM1470.85 449.96C1471.39 449.08 1472.09 448.39 1472.95 447.89C1473.83 447.39 1474.83 447.14 1475.95 447.14V451.55H1474.84C1473.52 451.55 1472.52 451.86 1471.84 452.48C1471.18 453.1 1470.85 454.18 1470.85 455.72V464H1466.65V447.38H1470.85V449.96ZM1492.29 464.27C1490.93 464.27 1489.71 464.03 1488.63 463.55C1487.55 463.05 1486.69 462.38 1486.05 461.54C1485.43 460.7 1485.09 459.77 1485.03 458.75H1489.26C1489.34 459.39 1489.65 459.92 1490.19 460.34C1490.75 460.76 1491.44 460.97 1492.26 460.97C1493.06 460.97 1493.68 460.81 1494.12 460.49C1494.58 460.17 1494.81 459.76 1494.81 459.26C1494.81 458.72 1494.53 458.32 1493.97 458.06C1493.43 457.78 1492.56 457.48 1491.36 457.16C1490.12 456.86 1489.1 456.55 1488.3 456.23C1487.52 455.91 1486.84 455.42 1486.26 454.76C1485.7 454.1 1485.42 453.21 1485.42 452.09C1485.42 451.17 1485.68 450.33 1486.2 449.57C1486.74 448.81 1487.5 448.21 1488.48 447.77C1489.48 447.33 1490.65 447.11 1491.99 447.11C1493.97 447.11 1495.55 447.61 1496.73 448.61C1497.91 449.59 1498.56 450.92 1498.68 452.6H1494.66C1494.6 451.94 1494.32 451.42 1493.82 451.04C1493.34 450.64 1492.69 450.44 1491.87 450.44C1491.11 450.44 1490.52 450.58 1490.1 450.86C1489.7 451.14 1489.5 451.53 1489.5 452.03C1489.5 452.59 1489.78 453.02 1490.34 453.32C1490.9 453.6 1491.77 453.89 1492.95 454.19C1494.15 454.49 1495.14 454.8 1495.92 455.12C1496.7 455.44 1497.37 455.94 1497.93 456.62C1498.51 457.28 1498.81 458.16 1498.83 459.26C1498.83 460.22 1498.56 461.08 1498.02 461.84C1497.5 462.6 1496.74 463.2 1495.74 463.64C1494.76 464.06 1493.61 464.27 1492.29 464.27ZM1512.12 464L1506.48 456.92V464H1502.28V441.8H1506.48V454.43L1512.06 447.38H1517.52L1510.2 455.72L1517.58 464H1512.12ZM1521.93 445.4C1521.19 445.4 1520.57 445.17 1520.07 444.71C1519.59 444.23 1519.35 443.64 1519.35 442.94C1519.35 442.24 1519.59 441.66 1520.07 441.2C1520.57 440.72 1521.19 440.48 1521.93 440.48C1522.67 440.48 1523.28 440.72 1523.76 441.2C1524.26 441.66 1524.51 442.24 1524.51 442.94C1524.51 443.64 1524.26 444.23 1523.76 444.71C1523.28 445.17 1522.67 445.4 1521.93 445.4ZM1524 447.38V464H1519.8V447.38H1524ZM1532.35 441.8V464H1528.15V441.8H1532.35ZM1540.7 441.8V464H1536.5V441.8H1540.7ZM1551.21 464.27C1549.85 464.27 1548.63 464.03 1547.55 463.55C1546.47 463.05 1545.61 462.38 1544.97 461.54C1544.35 460.7 1544.01 459.77 1543.95 458.75H1548.18C1548.26 459.39 1548.57 459.92 1549.11 460.34C1549.67 460.76 1550.36 460.97 1551.18 460.97C1551.98 460.97 1552.6 460.81 1553.04 460.49C1553.5 460.17 1553.73 459.76 1553.73 459.26C1553.73 458.72 1553.45 458.32 1552.89 458.06C1552.35 457.78 1551.48 457.48 1550.28 457.16C1549.04 456.86 1548.02 456.55 1547.22 456.23C1546.44 455.91 1545.76 455.42 1545.18 454.76C1544.62 454.1 1544.34 453.21 1544.34 452.09C1544.34 451.17 1544.6 450.33 1545.12 449.57C1545.66 448.81 1546.42 448.21 1547.4 447.77C1548.4 447.33 1549.57 447.11 1550.91 447.11C1552.89 447.11 1554.47 447.61 1555.65 448.61C1556.83 449.59 1557.48 450.92 1557.6 452.6H1553.58C1553.52 451.94 1553.24 451.42 1552.74 451.04C1552.26 450.64 1551.61 450.44 1550.79 450.44C1550.03 450.44 1549.44 450.58 1549.02 450.86C1548.62 451.14 1548.42 451.53 1548.42 452.03C1548.42 452.59 1548.7 453.02 1549.26 453.32C1549.82 453.6 1550.69 453.89 1551.87 454.19C1553.07 454.49 1554.06 454.8 1554.84 455.12C1555.62 455.44 1556.29 455.94 1556.85 456.62C1557.43 457.28 1557.73 458.16 1557.75 459.26C1557.75 460.22 1557.48 461.08 1556.94 461.84C1556.42 462.6 1555.66 463.2 1554.66 463.64C1553.68 464.06 1552.53 464.27 1551.21 464.27ZM1566.62 442.7L1566.14 457.19H1562.6L1562.09 442.7H1566.62ZM1564.46 464.21C1563.7 464.21 1563.07 463.98 1562.57 463.52C1562.09 463.04 1561.85 462.45 1561.85 461.75C1561.85 461.05 1562.09 460.47 1562.57 460.01C1563.07 459.53 1563.7 459.29 1564.46 459.29C1565.2 459.29 1565.81 459.53 1566.29 460.01C1566.77 460.47 1567.01 461.05 1567.01 461.75C1567.01 462.45 1566.77 463.04 1566.29 463.52C1565.81 463.98 1565.2 464.21 1564.46 464.21Z" fill="#F9BAD1"/>
</svg>
