<svg width="486" height="110" viewBox="0 0 486 110" fill="none" xmlns="http://www.w3.org/2000/svg">
<g filter="url(#filter0_i_9_44)">
<path d="M41.6027 109.05C29.4027 109.05 19.5527 106.55 12.0527 101.55C4.65273 96.45 0.952734 89.05 0.952734 79.35C0.952734 78.55 1.05273 77.15 1.25273 75.15H32.3027C32.0027 78.55 32.7027 81.2 34.4027 83.1C36.1027 85 38.7027 85.95 42.2027 85.95C45.1027 85.95 47.4027 85.3 49.1027 84C50.9027 82.7 51.8027 80.85 51.8027 78.45C51.8027 75.65 50.5027 73.35 47.9027 71.55C45.4027 69.75 41.3027 67.65 35.6027 65.25C29.9027 62.85 25.2027 60.6 21.5027 58.5C17.8027 56.3 14.6027 53.35 11.9027 49.65C9.20274 45.85 7.85274 41.15 7.85274 35.55C7.85274 28.25 9.65273 22 13.2527 16.8C16.8527 11.5 21.8527 7.5 28.2527 4.8C34.7527 2 42.1527 0.599997 50.4527 0.599997C57.9527 0.599997 64.6027 1.8 70.4027 4.2C76.2027 6.5 80.7027 9.85 83.9027 14.25C87.2027 18.65 88.8527 23.85 88.8527 29.85C88.8527 31.45 88.8027 32.65 88.7027 33.45H57.0527C57.1527 32.95 57.2027 32.25 57.2027 31.35C57.2027 28.95 56.4527 27.1 54.9527 25.8C53.4527 24.4 51.4027 23.7 48.8027 23.7C46.1027 23.7 43.9027 24.4 42.2027 25.8C40.6027 27.1 39.8027 28.95 39.8027 31.35C39.8027 33.95 41.0527 36.2 43.5527 38.1C46.1527 39.9 50.1527 42.05 55.5527 44.55C61.3527 47.25 66.1027 49.8 69.8027 52.2C73.6027 54.5 76.8527 57.6 79.5527 61.5C82.2527 65.4 83.6027 70.2 83.6027 75.9C83.6027 82.2 81.9027 87.9 78.5027 93C75.1027 98 70.2527 101.95 63.9527 104.85C57.6527 107.65 50.2027 109.05 41.6027 109.05ZM159.628 53.7L190.828 108H155.278L130.228 61.5L122.128 108H92.5781L111.328 2.24999H140.728L132.628 48L173.578 2.24999H207.478L159.628 53.7ZM249.566 2.24999L230.966 108H201.416L220.166 2.24999H249.566ZM281.159 85.65H314.009L309.959 108H247.559L266.309 2.24999H295.709L281.159 85.65ZM354.84 85.65H387.69L383.64 108H321.24L339.99 2.24999H369.39L354.84 85.65ZM438.722 109.05C426.522 109.05 416.672 106.55 409.172 101.55C401.772 96.45 398.072 89.05 398.072 79.35C398.072 78.55 398.172 77.15 398.372 75.15H429.422C429.122 78.55 429.822 81.2 431.522 83.1C433.222 85 435.822 85.95 439.322 85.95C442.222 85.95 444.522 85.3 446.222 84C448.022 82.7 448.922 80.85 448.922 78.45C448.922 75.65 447.622 73.35 445.022 71.55C442.522 69.75 438.422 67.65 432.722 65.25C427.022 62.85 422.322 60.6 418.622 58.5C414.922 56.3 411.722 53.35 409.022 49.65C406.322 45.85 404.972 41.15 404.972 35.55C404.972 28.25 406.772 22 410.372 16.8C413.972 11.5 418.972 7.5 425.372 4.8C431.872 2 439.272 0.599997 447.572 0.599997C455.072 0.599997 461.722 1.8 467.522 4.2C473.322 6.5 477.822 9.85 481.022 14.25C484.322 18.65 485.972 23.85 485.972 29.85C485.972 31.45 485.922 32.65 485.822 33.45H454.172C454.272 32.95 454.322 32.25 454.322 31.35C454.322 28.95 453.572 27.1 452.072 25.8C450.572 24.4 448.522 23.7 445.922 23.7C443.222 23.7 441.022 24.4 439.322 25.8C437.722 27.1 436.922 28.95 436.922 31.35C436.922 33.95 438.172 36.2 440.672 38.1C443.272 39.9 447.272 42.05 452.672 44.55C458.472 47.25 463.222 49.8 466.922 52.2C470.722 54.5 473.972 57.6 476.672 61.5C479.372 65.4 480.722 70.2 480.722 75.9C480.722 82.2 479.022 87.9 475.622 93C472.222 98 467.372 101.95 461.072 104.85C454.772 107.65 447.322 109.05 438.722 109.05Z" fill="#DD497F"/>
</g>
<defs>
<filter id="filter0_i_9_44" x="0.952759" y="0.600098" width="485.019" height="112.45" filterUnits="userSpaceOnUse" color-interpolation-filters="sRGB">
<feFlood flood-opacity="0" result="BackgroundImageFix"/>
<feBlend mode="normal" in="SourceGraphic" in2="BackgroundImageFix" result="shape"/>
<feColorMatrix in="SourceAlpha" type="matrix" values="0 0 0 0 0 0 0 0 0 0 0 0 0 0 0 0 0 0 127 0" result="hardAlpha"/>
<feOffset dy="15"/>
<feGaussianBlur stdDeviation="2"/>
<feComposite in2="hardAlpha" operator="arithmetic" k2="-1" k3="1"/>
<feColorMatrix type="matrix" values="0 0 0 0 0 0 0 0 0 0 0 0 0 0 0 0 0 0 0.25 0"/>
<feBlend mode="normal" in2="shape" result="effect1_innerShadow_9_44"/>
</filter>
</defs>
</svg>
